<svg xmlns="http://www.w3.org/2000/svg" viewBox="0 -0.5 176 112" shape-rendering="crispEdges0" width="176" height="112">
<metadata>Made with Pixels to Svg https://codepen.io/shshaw/pen/XbxvNj</metadata>
<path stroke="#78a158" d="M146 0h1M145 1h2M8 2h32M54 2h3M72 2h48M128 2h18M5 3h6M19 3h3M27 3h2M37 3h6M53 3h6M69 3h6M82 3h3M89 3h4M99 3h4M107 3h3M117 3h6M130 3h3M137 3h4M4 4h2M41 4h3M52 4h2M57 4h3M68 4h2M121 4h3M3 5h2M43 5h2M51 5h2M59 5h2M67 5h2M123 5h2M3 6h1M43 6h2M51 6h1M59 6h2M67 6h1M123 6h2M3 7h2M43 7h2M51 7h2M59 7h2M67 7h2M123 7h2M2 8h3M44 8h2M50 8h3M60 8h2M66 8h3M124 8h2M2 9h2M44 9h2M50 9h2M60 9h2M66 9h2M124 9h2M2 10h2M45 10h1M50 10h2M61 10h1M66 10h2M125 10h1M2 11h1M45 11h1M50 11h1M61 11h1M66 11h1M125 11h1M2 12h1M44 12h2M50 12h1M60 12h2M66 12h1M124 12h2M2 13h1M44 13h2M50 13h1M60 13h2M66 13h1M78 13h2M94 13h4M112 13h2M124 13h2M128 13h2M142 13h2M158 13h2M2 14h1M45 14h1M50 14h1M61 14h1M66 14h1M77 14h2M93 14h2M97 14h2M113 14h2M125 14h1M129 14h2M141 14h2M157 14h2M2 15h1M45 15h1M50 15h1M61 15h1M66 15h1M77 15h1M93 15h1M98 15h1M114 15h1M125 15h1M130 15h1M141 15h1M157 15h1M2 16h1M45 16h1M50 16h1M61 16h1M66 16h2M124 16h2M157 16h1M2 17h1M45 17h1M50 17h1M61 17h1M66 17h2M124 17h2M157 17h2M2 18h1M45 18h1M50 18h1M61 18h1M66 18h1M125 18h1M158 18h2M2 19h2M44 19h2M50 19h2M60 19h2M66 19h1M125 19h1M2 20h2M44 20h2M50 20h2M60 20h2M66 20h1M125 20h1M2 21h2M44 21h2M50 21h2M60 21h2M66 21h1M125 21h1M2 22h1M45 22h1M50 22h1M61 22h1M66 22h1M125 22h1M2 23h1M45 23h1M50 23h1M61 23h1M66 23h2M124 23h2M2 24h1M45 24h1M50 24h1M61 24h1M66 24h2M124 24h2M2 25h1M45 25h1M50 25h1M61 25h1M66 25h2M124 25h2M2 26h2M45 26h1M50 26h2M61 26h1M66 26h2M124 26h2M2 27h2M45 27h1M50 27h2M61 27h1M66 27h1M125 27h1M2 28h1M44 28h2M50 28h1M60 28h2M66 28h1M125 28h1M2 29h1M44 29h2M50 29h1M60 29h2M66 29h2M78 29h2M94 29h4M112 29h2M124 29h2M128 29h2M142 29h4M2 30h1M45 30h1M50 30h1M61 30h1M66 30h2M77 30h2M93 30h2M97 30h2M113 30h2M124 30h2M129 30h2M141 30h2M145 30h2M2 31h1M45 31h1M50 31h1M61 31h1M66 31h1M77 31h1M93 31h1M98 31h1M114 31h1M125 31h1M130 31h1M141 31h1M146 31h1M2 32h1M44 32h2M50 32h1M60 32h2M66 32h1M77 32h1M93 32h1M98 32h1M114 32h1M125 32h1M130 32h1M141 32h1M146 32h1M157 32h1M162 32h1M173 32h1M2 33h1M44 33h2M50 33h1M60 33h2M66 33h1M77 33h2M93 33h2M97 33h2M113 33h2M125 33h1M129 33h2M141 33h2M145 33h2M157 33h2M161 33h2M173 33h2M2 34h2M45 34h1M50 34h2M61 34h1M66 34h1M78 34h2M94 34h4M112 34h2M125 34h1M128 34h2M142 34h4M158 34h4M174 34h2M2 35h2M45 35h1M50 35h2M61 35h1M66 35h2M124 35h2M128 35h1M143 35h1M2 36h1M45 36h1M50 36h1M61 36h1M66 36h2M124 36h2M2 37h1M44 37h2M50 37h1M60 37h2M66 37h2M124 37h2M2 38h2M44 38h2M50 38h2M60 38h2M66 38h1M125 38h1M2 39h2M44 39h2M50 39h2M60 39h2M66 39h2M124 39h2M3 40h1M43 40h2M51 40h1M59 40h2M66 40h2M124 40h2M3 41h2M43 41h2M51 41h2M59 41h2M66 41h2M124 41h2M3 42h2M43 42h2M51 42h2M59 42h2M66 42h1M125 42h1M4 43h2M42 43h2M52 43h2M58 43h2M66 43h1M125 43h1M5 44h6M12 44h2M18 44h3M26 44h3M34 44h2M38 44h5M53 44h6M66 44h1M125 44h1M8 45h32M54 45h4M66 45h1M125 45h1M144 45h2M174 45h2M66 46h2M124 46h2M145 46h2M173 46h2M66 47h2M124 47h2M146 47h1M173 47h1M66 48h1M77 48h1M93 48h1M98 48h1M114 48h1M124 48h2M130 48h1M141 48h1M146 48h1M173 48h1M53 49h6M66 49h1M77 49h2M93 49h2M97 49h2M113 49h2M124 49h2M129 49h2M141 49h2M145 49h2M173 49h2M8 50h32M51 50h3M57 50h4M66 50h2M78 50h2M94 50h4M112 50h2M125 50h1M128 50h2M142 50h4M174 50h2M5 51h6M19 51h3M27 51h2M37 51h6M50 51h2M60 51h2M66 51h2M125 51h1M128 51h1M143 51h1M4 52h2M41 52h3M50 52h1M61 52h1M66 52h1M125 52h1M3 53h2M43 53h2M49 53h2M61 53h2M66 53h1M124 53h2M2 54h2M44 54h2M49 54h1M62 54h1M66 54h2M124 54h2M2 55h2M44 55h2M49 55h1M62 55h1M66 55h2M124 55h2M2 56h2M44 56h2M49 56h1M62 56h1M67 56h1M123 56h2M2 57h2M44 57h2M49 57h2M62 57h1M67 57h2M123 57h2M3 58h2M43 58h2M49 58h2M61 58h2M67 58h2M123 58h2M4 59h2M41 59h3M50 59h1M61 59h1M68 59h2M122 59h2M5 60h6M12 60h2M18 60h3M26 60h3M34 60h2M38 60h5M50 60h2M60 60h2M69 60h6M76 60h2M82 60h2M89 60h3M100 60h3M108 60h2M114 60h2M118 60h5M132 60h3M140 60h2M8 61h32M51 61h3M58 61h3M72 61h48M128 61h18M158 61h4M174 61h2M53 62h6M145 62h2M157 62h2M161 62h2M173 62h2M146 63h1M157 63h1M162 63h1M173 63h1M2 64h1M13 64h1M66 64h1M77 64h1M93 64h1M98 64h1M114 64h1M124 64h2M130 64h1M141 64h1M146 64h1M157 64h1M2 65h1M13 65h1M66 65h1M77 65h2M93 65h2M97 65h2M113 65h2M124 65h2M130 65h1M141 65h1M146 65h1M157 65h1M2 66h1M13 66h1M16 66h16M38 66h4M54 66h4M66 66h1M78 66h2M94 66h4M112 66h2M125 66h1M128 66h2M142 66h4M158 66h2M2 67h2M12 67h2M19 67h3M27 67h2M36 67h3M41 67h3M52 67h8M66 67h2M125 67h1M2 68h2M12 68h2M35 68h2M43 68h2M51 68h2M59 68h2M66 68h2M125 68h1M2 69h2M12 69h2M35 69h1M44 69h1M51 69h1M60 69h1M66 69h2M125 69h1M2 70h1M13 70h1M34 70h2M44 70h2M50 70h2M60 70h2M66 70h1M125 70h1M2 71h1M13 71h1M34 71h2M44 71h2M50 71h1M61 71h1M66 71h2M124 71h2M2 72h1M13 72h1M34 72h2M44 72h2M50 72h1M61 72h1M66 72h2M124 72h2M2 73h1M13 73h1M34 73h2M44 73h2M50 73h2M61 73h1M66 73h2M124 73h2M2 74h2M13 74h1M35 74h1M44 74h1M51 74h1M60 74h1M66 74h1M124 74h2M2 75h2M13 75h1M35 75h2M43 75h2M51 75h2M59 75h2M66 75h1M125 75h1M2 76h1M12 76h2M18 76h3M26 76h3M36 76h2M41 76h3M52 76h8M66 76h1M125 76h1M2 77h1M12 77h2M16 77h16M38 77h4M54 77h4M66 77h1M78 77h2M94 77h4M112 77h2M124 77h2M128 77h2M142 77h4M158 77h2M2 78h1M13 78h1M66 78h2M77 78h2M93 78h2M97 78h2M113 78h2M124 78h2M130 78h1M141 78h1M146 78h1M157 78h1M2 79h1M13 79h1M66 79h2M77 79h1M93 79h1M98 79h1M114 79h1M125 79h1M130 79h1M141 79h1M146 79h1M157 79h1" />
<path stroke="#a4c263" d="M147 0h2M147 1h2M146 2h3M151 2h1M11 3h8M22 3h5M29 3h8M75 3h7M85 3h4M93 3h6M103 3h4M110 3h7M128 3h2M133 3h4M141 3h7M6 4h35M54 4h3M70 4h51M128 4h19M5 5h11M17 5h7M25 5h5M34 5h9M53 5h6M69 5h22M94 5h1M97 5h1M101 5h11M114 5h1M117 5h6M128 5h11M142 5h1M151 5h1M4 6h6M11 6h1M20 6h1M23 6h1M26 6h1M34 6h1M36 6h7M52 6h7M68 6h6M75 6h1M84 6h1M88 6h1M92 6h1M99 6h1M103 6h1M107 6h1M119 6h4M132 6h1M136 6h1M140 6h1M147 6h1M5 7h4M13 7h1M18 7h1M29 7h1M38 7h1M40 7h3M53 7h6M69 7h3M121 7h2M5 8h3M25 8h1M41 8h3M53 8h2M57 8h3M69 8h2M77 8h1M119 8h1M121 8h3M130 8h1M156 8h1M4 9h3M42 9h2M52 9h2M58 9h2M68 9h2M122 9h2M134 9h1M141 9h1M4 10h4M34 10h1M42 10h3M52 10h2M58 10h3M68 10h3M78 10h2M89 10h1M94 10h4M102 10h1M113 10h1M122 10h3M128 10h2M158 10h2M3 11h3M39 11h1M42 11h3M51 11h3M58 11h3M67 11h3M76 11h4M92 11h8M112 11h4M122 11h3M128 11h4M142 11h2M156 11h4M3 12h3M13 12h1M43 12h1M51 12h3M55 12h1M59 12h1M67 12h3M75 12h5M91 12h10M112 12h4M123 12h1M128 12h4M140 12h4M155 12h5M3 13h3M7 13h1M42 13h2M51 13h3M59 13h1M67 13h3M71 13h1M75 13h3M86 13h1M91 13h3M98 13h3M105 13h1M114 13h3M122 13h2M130 13h3M139 13h3M151 13h1M155 13h3M3 14h2M43 14h2M51 14h2M58 14h3M67 14h2M74 14h3M90 14h3M99 14h3M115 14h3M123 14h2M131 14h2M139 14h2M154 14h3M3 15h2M43 15h2M51 15h3M59 15h2M67 15h2M74 15h3M89 15h4M99 15h4M115 15h2M123 15h2M131 15h2M134 15h1M139 15h2M154 15h3M3 16h3M43 16h2M51 16h2M59 16h2M68 16h2M122 16h2M155 16h2M3 17h2M7 17h1M43 17h2M51 17h2M59 17h2M68 17h2M122 17h2M155 17h2M3 18h2M37 18h1M42 18h3M51 18h2M58 18h3M67 18h3M72 18h1M119 18h1M122 18h3M152 18h1M155 18h3M4 19h2M11 19h1M41 19h3M52 19h2M56 19h1M58 19h2M67 19h3M93 19h1M122 19h3M156 19h4M4 20h3M42 20h2M52 20h2M58 20h2M67 20h2M99 20h1M123 20h2M157 20h3M4 21h2M41 21h3M52 21h3M58 21h2M67 21h2M123 21h2M158 21h1M3 22h3M8 22h1M41 22h4M51 22h3M58 22h3M67 22h3M87 22h1M122 22h3M155 22h1M3 23h2M42 23h3M51 23h2M59 23h2M68 23h1M77 23h1M99 23h1M114 23h1M123 23h1M3 24h2M39 24h1M42 24h3M51 24h2M59 24h2M68 24h2M93 24h1M103 24h1M122 24h2M130 24h1M146 24h1M3 25h3M42 25h3M51 25h3M59 25h2M68 25h2M75 25h1M116 25h1M122 25h2M134 25h1M141 25h1M4 26h2M42 26h3M52 26h3M58 26h3M68 26h3M79 26h1M84 26h1M94 26h2M97 26h1M112 26h1M121 26h3M128 26h2M144 26h2M4 27h2M36 27h1M41 27h4M52 27h2M58 27h3M67 27h3M77 27h3M92 27h8M112 27h3M122 27h3M128 27h4M142 27h5M149 27h1M3 28h4M9 28h1M42 28h2M51 28h3M56 28h1M58 28h2M67 28h3M76 28h4M91 28h9M106 28h1M112 28h4M122 28h3M128 28h4M140 28h8M3 29h3M39 29h1M43 29h1M51 29h3M59 29h1M68 29h2M75 29h3M87 29h1M91 29h3M98 29h3M114 29h3M122 29h2M130 29h3M139 29h3M146 29h3M3 30h2M43 30h2M51 30h2M59 30h2M68 30h1M74 30h3M90 30h3M99 30h3M115 30h3M123 30h1M131 30h2M139 30h2M147 30h2M151 30h1M3 31h3M43 31h2M51 31h2M54 31h1M59 31h2M67 31h2M75 31h2M90 31h3M99 31h2M115 31h2M123 31h2M131 31h2M134 31h1M139 31h2M147 31h2M3 32h2M42 32h2M51 32h2M58 32h2M67 32h2M75 32h2M91 32h2M99 32h2M115 32h2M123 32h2M131 32h2M139 32h2M147 32h2M155 32h2M163 32h2M171 32h2M3 33h3M42 33h2M51 33h2M57 33h3M67 33h2M75 33h2M91 33h2M99 33h2M115 33h2M123 33h2M131 33h2M139 33h2M147 33h2M154 33h3M163 33h2M170 33h3M4 34h3M37 34h1M41 34h4M52 34h1M58 34h3M67 34h2M71 34h1M75 34h3M88 34h1M91 34h3M98 34h3M103 34h1M114 34h3M120 34h1M123 34h2M130 34h3M139 34h3M146 34h3M151 34h1M155 34h3M162 34h3M168 34h1M171 34h3M4 35h2M10 35h1M42 35h3M52 35h1M55 35h1M58 35h3M68 35h1M76 35h4M84 35h1M92 35h9M112 35h4M123 35h1M129 35h3M140 35h3M144 35h4M156 35h8M172 35h4M3 36h4M41 36h4M51 36h3M57 36h4M68 36h1M77 36h3M92 36h7M107 36h1M112 36h3M123 36h1M128 36h3M141 36h6M157 36h6M173 36h3M3 37h3M13 37h1M42 37h2M51 37h3M58 37h2M68 37h2M74 37h1M78 37h1M93 37h1M96 37h2M113 37h1M117 37h1M122 37h2M129 37h1M135 37h1M154 37h1M157 37h1M161 37h1M4 38h2M18 38h1M28 38h1M42 38h2M52 38h2M58 38h2M67 38h3M102 38h1M122 38h3M139 38h1M150 38h1M164 38h1M172 38h1M4 39h4M35 39h1M38 39h1M41 39h3M52 39h2M57 39h3M68 39h3M121 39h3M130 39h1M4 40h3M11 40h1M22 40h1M41 40h2M52 40h3M57 40h2M68 40h2M77 40h1M93 40h1M114 40h1M122 40h2M146 40h1M157 40h1M5 41h3M10 41h1M19 41h1M26 41h1M29 41h1M40 41h3M53 41h2M57 41h2M68 41h1M87 41h1M123 41h1M142 41h1M5 42h8M14 42h1M18 42h4M25 42h6M34 42h1M37 42h6M53 42h6M67 42h3M103 42h1M122 42h3M144 42h2M169 42h1M174 42h2M6 43h36M54 43h4M67 43h2M98 43h1M123 43h2M144 43h3M149 43h1M172 43h4M11 44h1M14 44h4M21 44h5M29 44h5M36 44h2M67 44h3M92 44h1M122 44h3M144 44h4M170 44h6M67 45h4M121 45h4M146 45h3M171 45h3M68 46h2M72 46h1M119 46h1M122 46h2M147 46h2M152 46h1M170 46h3M68 47h2M122 47h2M147 47h2M170 47h3M67 48h2M75 48h2M90 48h3M99 48h3M115 48h2M122 48h2M131 48h2M139 48h2M147 48h2M170 48h3M67 49h3M75 49h2M91 49h2M99 49h2M115 49h2M122 49h2M131 49h2M139 49h2M147 49h3M169 49h4M54 50h3M68 50h1M72 50h1M75 50h3M91 50h3M98 50h3M114 50h3M119 50h1M121 50h4M130 50h3M139 50h3M146 50h3M167 50h1M170 50h4M11 51h8M22 51h5M29 51h8M52 51h8M68 51h2M76 51h4M92 51h8M112 51h5M122 51h3M129 51h3M140 51h3M144 51h4M171 51h5M6 52h35M51 52h4M58 52h3M67 52h3M76 52h4M90 52h1M93 52h6M101 52h1M112 52h3M121 52h4M128 52h3M141 52h6M149 52h1M172 52h4M5 53h7M17 53h5M26 53h3M37 53h6M51 53h2M59 53h2M67 53h3M77 53h1M94 53h4M112 53h2M122 53h2M129 53h1M135 53h1M144 53h2M174 53h2M4 54h4M13 54h1M30 54h1M34 54h1M40 54h4M50 54h2M56 54h1M60 54h2M68 54h2M122 54h2M139 54h1M169 54h1M175 54h1M4 55h3M22 55h1M41 55h3M50 55h2M60 55h2M68 55h4M85 55h1M106 55h1M115 55h1M118 55h1M121 55h3M130 55h1M162 55h1M4 56h3M18 56h1M41 56h3M50 56h2M57 56h1M60 56h2M68 56h3M75 56h1M93 56h1M98 56h1M121 56h2M4 57h4M10 57h1M24 57h1M26 57h1M40 57h4M51 57h2M54 57h1M60 57h2M69 57h3M74 57h1M90 57h1M101 57h1M120 57h3M133 57h1M149 57h1M155 57h1M164 57h1M172 57h1M5 58h8M14 58h1M17 58h3M23 58h8M34 58h1M37 58h6M51 58h2M59 58h2M69 58h8M78 58h1M81 58h3M86 58h1M88 58h6M98 58h6M105 58h1M108 58h3M114 58h1M117 58h6M130 58h6M137 58h1M140 58h3M158 58h1M161 58h1M6 59h35M51 59h4M57 59h4M70 59h52M128 59h19M157 59h6M173 59h3M11 60h1M14 60h4M21 60h5M29 60h5M36 60h2M52 60h8M75 60h1M78 60h4M84 60h5M92 60h8M103 60h5M110 60h4M116 60h2M128 60h4M135 60h5M142 60h6M156 60h8M172 60h4M54 61h4M146 61h3M152 61h1M155 61h3M162 61h3M168 61h1M171 61h3M147 62h2M155 62h2M163 62h2M171 62h2M147 63h2M155 63h2M163 63h2M171 63h2M3 64h2M11 64h2M67 64h2M75 64h2M91 64h2M99 64h3M115 64h3M122 64h2M131 64h3M139 64h2M147 64h3M155 64h2M3 65h2M11 65h2M67 65h2M75 65h2M91 65h2M99 65h2M103 65h1M115 65h2M119 65h1M122 65h2M131 65h2M139 65h2M147 65h2M155 65h2M3 66h2M10 66h3M67 66h2M74 66h1M76 66h2M90 66h1M92 66h2M98 66h3M114 66h3M122 66h3M130 66h3M140 66h2M146 66h3M155 66h3M4 67h2M10 67h2M16 67h3M22 67h5M29 67h3M39 67h2M68 67h1M77 67h3M93 67h7M112 67h4M122 67h3M128 67h4M136 67h1M140 67h8M151 67h1M156 67h4M4 68h2M9 68h3M16 68h16M37 68h6M53 68h6M68 68h1M79 68h1M95 68h3M112 68h2M123 68h2M128 68h2M141 68h6M157 68h3M4 69h2M10 69h2M17 69h5M25 69h1M28 69h1M31 69h1M36 69h3M41 69h3M52 69h3M58 69h2M68 69h2M96 69h1M112 69h1M123 69h2M3 70h3M10 70h3M28 70h1M36 70h2M42 70h2M52 70h1M57 70h1M59 70h1M67 70h3M99 70h1M115 70h1M122 70h3M3 71h2M11 71h2M20 71h1M36 71h1M43 71h1M51 71h2M54 71h1M59 71h2M68 71h3M123 71h1M130 71h1M146 71h1M157 71h1M3 72h2M8 72h1M11 72h2M25 72h1M36 72h1M38 72h1M43 72h1M51 72h2M59 72h2M68 72h2M122 72h2M133 72h1M140 72h1M3 73h3M11 73h2M19 73h1M36 73h1M41 73h1M43 73h1M52 73h2M56 73h1M59 73h2M68 73h1M77 73h1M93 73h1M122 73h2M152 73h1M4 74h2M10 74h3M18 74h4M25 74h6M36 74h2M42 74h2M52 74h3M57 74h3M67 74h3M96 74h1M101 74h1M112 74h1M117 74h1M121 74h3M129 74h1M142 74h2M157 74h2M4 75h3M10 75h3M16 75h16M37 75h6M53 75h6M67 75h2M78 75h2M94 75h5M112 75h3M122 75h3M128 75h3M141 75h7M156 75h4M3 76h3M10 76h2M16 76h2M21 76h5M29 76h3M38 76h3M67 76h3M76 76h4M92 76h8M112 76h4M122 76h3M128 76h4M134 76h1M140 76h9M151 76h1M155 76h5M3 77h3M11 77h1M67 77h4M72 77h1M76 77h2M88 77h1M92 77h2M98 77h3M114 77h3M122 77h2M130 77h3M139 77h3M146 77h3M155 77h3M3 78h2M11 78h2M68 78h2M75 78h2M91 78h2M99 78h2M115 78h2M123 78h1M131 78h2M139 78h2M147 78h2M155 78h2M3 79h2M6 79h1M11 79h2M68 79h2M75 79h2M91 79h2M99 79h3M115 79h3M123 79h2M131 79h3M139 79h2M147 79h3M155 79h2M34 82h1M36 82h1M70 82h5M118 82h5M12 83h1M25 83h1M27 83h1M35 83h1M51 83h4M68 83h8M99 83h4M116 83h8M11 84h1M26 84h1M50 84h7M67 84h9M98 84h7M115 84h9M11 85h1M50 85h8M67 85h9M98 85h8M115 85h9M4 86h1M50 86h8M68 86h7M98 86h8M116 86h7M5 87h1M50 87h8M98 87h8M5 88h1M10 88h1M51 88h6M74 88h3M99 88h6M122 88h3M9 89h1M42 89h1M44 89h1M66 89h4M73 89h5M114 89h4M121 89h5M9 90h1M19 90h1M21 90h1M43 90h1M57 90h4M65 90h6M73 90h5M105 90h4M113 90h6M121 90h5M20 91h1M56 91h6M65 91h6M74 91h3M104 91h6M113 91h6M122 91h3M56 92h6M66 92h4M104 92h6M114 92h4M36 93h1M38 93h1M57 93h4M105 93h4M37 94h1M134 103h1M136 103h1M135 104h1" />
<path stroke="#c0d470" d="M149 0h11M149 1h11M149 2h2M152 2h8M148 3h12M147 4h13M16 5h1M24 5h1M30 5h4M91 5h3M95 5h2M98 5h3M112 5h2M115 5h2M139 5h3M143 5h8M152 5h8M10 6h1M12 6h8M21 6h2M24 6h2M27 6h7M35 6h1M74 6h1M76 6h8M85 6h3M89 6h3M93 6h6M100 6h3M104 6h3M108 6h11M128 6h4M133 6h3M137 6h3M141 6h6M148 6h12M9 7h4M14 7h4M19 7h10M30 7h8M39 7h1M72 7h49M128 7h32M8 8h17M26 8h15M55 8h2M71 8h6M78 8h41M120 8h1M128 8h2M131 8h25M157 8h3M7 9h35M54 9h4M70 9h52M128 9h6M135 9h6M142 9h18M8 10h26M35 10h7M54 10h4M71 10h7M80 10h9M90 10h4M98 10h4M103 10h10M114 10h8M130 10h28M6 11h33M40 11h2M54 11h4M70 11h6M80 11h12M100 11h12M116 11h6M132 11h10M144 11h12M6 12h7M14 12h29M54 12h1M56 12h3M70 12h5M80 12h11M101 12h11M116 12h7M132 12h8M144 12h11M6 13h1M8 13h34M54 13h5M70 13h1M72 13h3M80 13h6M87 13h4M101 13h4M106 13h6M117 13h5M133 13h6M144 13h7M152 13h3M5 14h38M53 14h5M69 14h5M80 14h10M102 14h10M118 14h5M133 14h6M144 14h10M5 15h38M54 15h5M69 15h5M80 15h9M103 15h9M117 15h6M133 15h1M135 15h4M144 15h10M6 16h37M53 16h6M70 16h52M128 16h27M5 17h2M8 17h35M53 17h6M70 17h52M128 17h27M5 18h32M38 18h4M53 18h5M70 18h2M73 18h46M120 18h2M128 18h24M153 18h2M6 19h5M12 19h29M54 19h2M57 19h1M70 19h23M94 19h28M128 19h28M7 20h35M54 20h4M69 20h30M100 20h23M128 20h29M6 21h35M55 21h3M69 21h54M128 21h30M159 21h1M6 22h2M9 22h32M54 22h4M70 22h17M88 22h34M128 22h27M156 22h4M5 23h37M53 23h6M69 23h8M78 23h21M100 23h14M115 23h8M128 23h32M5 24h34M40 24h2M53 24h6M70 24h23M94 24h9M104 24h18M128 24h2M131 24h15M147 24h13M6 25h36M54 25h5M70 25h5M76 25h40M117 25h5M128 25h6M135 25h6M142 25h18M6 26h36M55 26h3M71 26h8M80 26h4M85 26h9M96 26h1M98 26h14M113 26h8M130 26h14M146 26h14M6 27h30M37 27h4M54 27h4M70 27h7M80 27h12M100 27h12M115 27h7M132 27h10M147 27h2M150 27h10M7 28h2M10 28h32M54 28h2M57 28h1M70 28h6M80 28h11M100 28h6M107 28h5M116 28h6M132 28h8M148 28h12M6 29h33M40 29h3M54 29h5M70 29h5M80 29h7M88 29h3M101 29h11M117 29h5M133 29h6M149 29h11M5 30h38M53 30h6M69 30h5M80 30h10M102 30h10M118 30h5M133 30h6M149 30h2M152 30h8M6 31h37M53 31h1M55 31h4M69 31h6M80 31h10M101 31h11M117 31h6M133 31h1M135 31h4M149 31h11M5 32h37M53 32h5M69 32h6M80 32h11M101 32h11M117 32h6M133 32h6M149 32h6M165 32h6M6 33h36M53 33h4M69 33h6M80 33h11M101 33h11M117 33h6M133 33h6M149 33h5M165 33h5M7 34h30M38 34h3M53 34h5M69 34h2M72 34h3M80 34h8M89 34h2M101 34h2M104 34h8M117 34h3M121 34h2M133 34h6M149 34h2M152 34h3M165 34h3M169 34h2M6 35h4M11 35h31M53 35h2M56 35h2M69 35h7M80 35h4M85 35h7M101 35h11M116 35h7M132 35h8M148 35h8M164 35h8M7 36h34M54 36h3M69 36h8M80 36h12M99 36h8M108 36h4M115 36h8M131 36h10M147 36h10M163 36h10M6 37h7M14 37h28M54 37h4M70 37h4M75 37h3M79 37h14M94 37h2M98 37h15M114 37h3M118 37h4M128 37h1M130 37h5M136 37h18M155 37h2M158 37h3M162 37h14M6 38h12M19 38h9M29 38h13M54 38h4M70 38h32M103 38h19M128 38h11M140 38h10M151 38h13M165 38h7M173 38h3M8 39h27M36 39h2M39 39h2M54 39h3M71 39h50M128 39h2M131 39h45M7 40h4M12 40h10M23 40h18M55 40h2M70 40h7M78 40h15M94 40h20M115 40h7M128 40h18M147 40h10M158 40h18M8 41h2M11 41h8M20 41h6M27 41h2M30 41h10M55 41h2M69 41h18M88 41h35M128 41h14M143 41h33M13 42h1M15 42h3M22 42h3M31 42h3M35 42h2M70 42h33M104 42h18M128 42h16M146 42h23M170 42h4M69 43h29M99 43h24M128 43h16M147 43h2M150 43h22M70 44h22M93 44h29M128 44h16M148 44h22M71 45h50M128 45h16M149 45h22M70 46h2M73 46h46M120 46h2M128 46h16M149 46h3M153 46h17M70 47h52M128 47h16M149 47h21M69 48h6M80 48h10M102 48h10M117 48h5M133 48h6M149 48h21M70 49h5M80 49h11M101 49h11M117 49h5M133 49h6M150 49h19M69 50h3M73 50h2M80 50h11M101 50h11M117 50h2M120 50h1M133 50h6M149 50h18M168 50h2M70 51h6M80 51h12M100 51h12M117 51h5M132 51h8M148 51h23M55 52h3M70 52h6M80 52h10M91 52h2M99 52h2M102 52h10M115 52h6M131 52h10M147 52h2M150 52h22M12 53h5M22 53h4M29 53h8M53 53h6M70 53h7M78 53h16M98 53h14M114 53h8M128 53h1M130 53h5M136 53h8M146 53h28M8 54h5M14 54h16M31 54h3M35 54h5M52 54h4M57 54h3M70 54h52M128 54h11M140 54h29M170 54h5M7 55h15M23 55h18M52 55h8M72 55h13M86 55h20M107 55h8M116 55h2M119 55h2M128 55h2M131 55h31M163 55h13M7 56h11M19 56h22M52 56h5M58 56h2M71 56h4M76 56h17M94 56h4M99 56h22M128 56h48M8 57h2M11 57h13M25 57h1M27 57h13M53 57h1M55 57h5M72 57h2M75 57h15M91 57h10M102 57h18M128 57h5M134 57h15M150 57h5M156 57h8M165 57h7M173 57h3M13 58h1M15 58h2M20 58h3M31 58h3M35 58h2M53 58h6M77 58h1M79 58h2M84 58h2M87 58h1M94 58h4M104 58h1M106 58h2M111 58h3M115 58h2M128 58h2M136 58h1M138 58h2M143 58h15M159 58h2M162 58h14M55 59h2M147 59h10M163 59h10M148 60h8M164 60h8M149 61h3M153 61h2M165 61h3M169 61h2M149 62h6M165 62h6M149 63h6M165 63h6M5 64h6M69 64h6M80 64h11M102 64h10M118 64h4M134 64h5M150 64h5M5 65h6M69 65h6M80 65h11M101 65h2M104 65h8M117 65h2M120 65h2M133 65h6M149 65h6M5 66h5M69 66h5M75 66h1M80 66h10M91 66h1M101 66h11M117 66h5M133 66h7M149 66h6M6 67h4M69 67h8M80 67h13M100 67h12M116 67h6M132 67h4M137 67h3M148 67h3M152 67h4M6 68h3M69 68h10M80 68h15M98 68h14M114 68h9M130 68h11M147 68h10M6 69h4M16 69h1M22 69h3M26 69h2M29 69h2M39 69h2M55 69h3M70 69h26M97 69h15M113 69h10M128 69h32M6 70h4M16 70h12M29 70h3M38 70h4M53 70h4M58 70h1M70 70h29M100 70h15M116 70h6M128 70h32M5 71h6M16 71h4M21 71h11M37 71h6M53 71h1M55 71h4M71 71h52M128 71h2M131 71h15M147 71h10M158 71h2M5 72h3M9 72h2M16 72h9M26 72h6M37 72h1M39 72h4M53 72h6M70 72h52M128 72h5M134 72h6M141 72h19M6 73h5M16 73h3M20 73h12M37 73h4M42 73h1M54 73h2M57 73h2M69 73h8M78 73h15M94 73h28M128 73h24M153 73h7M6 74h4M16 74h2M22 74h3M31 74h1M38 74h4M55 74h2M70 74h26M97 74h4M102 74h10M113 74h4M118 74h3M128 74h1M130 74h12M144 74h13M159 74h1M7 75h3M69 75h9M80 75h14M99 75h13M115 75h7M131 75h10M148 75h8M6 76h4M70 76h6M80 76h12M100 76h12M116 76h6M132 76h2M135 76h5M149 76h2M152 76h3M6 77h5M71 77h1M73 77h3M80 77h8M89 77h3M101 77h11M117 77h5M133 77h6M149 77h6M5 78h6M70 78h5M80 78h11M101 78h11M117 78h6M133 78h6M149 78h6M5 79h1M7 79h4M70 79h5M80 79h11M102 79h10M118 79h5M134 79h5M150 79h5M0 80h96M0 81h96M0 82h34M35 82h1M37 82h33M75 82h21M0 83h12M13 83h12M26 83h1M28 83h7M36 83h15M55 83h13M76 83h8M86 83h10M0 84h11M12 84h14M27 84h23M57 84h10M76 84h7M87 84h9M0 85h11M12 85h38M58 85h9M76 85h8M86 85h4M92 85h4M0 86h4M5 86h45M58 86h10M75 86h14M93 86h3M0 87h5M6 87h44M58 87h32M92 87h4M0 88h5M6 88h4M11 88h40M57 88h17M77 88h19M0 89h9M10 89h32M43 89h1M45 89h21M70 89h3M78 89h18M0 90h9M10 90h9M20 90h1M22 90h21M44 90h13M61 90h4M71 90h2M78 90h8M88 90h8M0 91h20M21 91h35M62 91h3M71 91h3M77 91h8M89 91h7M0 92h56M62 92h4M70 92h16M88 92h8M0 93h36M37 93h1M39 93h18M61 93h35M0 94h37M38 94h58M0 95h96M0 96h96M0 97h96M0 98h96M0 99h27M28 99h1M30 99h21M56 99h14M75 99h21M0 100h28M29 100h21M57 100h12M77 100h19M0 101h7M8 101h30M39 101h1M41 101h9M57 101h12M78 101h7M87 101h9M0 102h6M7 102h32M40 102h11M56 102h13M78 102h6M88 102h8M0 103h3M4 103h2M7 103h63M77 103h8M87 103h9M0 104h4M5 104h1M7 104h50M61 104h35M0 105h4M5 105h5M11 105h44M62 105h5M71 105h25M0 106h4M5 106h6M12 106h8M21 106h1M23 106h32M62 106h4M72 106h16M90 106h6M0 107h11M12 107h9M22 107h28M53 107h3M61 107h5M72 107h15M91 107h5M0 108h11M12 108h37M54 108h13M71 108h17M90 108h6M0 109h49M54 109h42M0 110h50M53 110h43M0 111h96" />
<path stroke="#eae178" d="M84 83h2M83 84h4M84 85h2M90 85h2M89 86h4M90 87h2M151 87h2M150 88h4M151 89h2M86 90h2M85 91h4M86 92h2M85 101h2M84 102h4M85 103h2M88 106h2M87 107h4M88 108h2" />
<path stroke="#e8eeaa" d="M134 87h1M136 87h1M135 88h1M27 99h1M29 99h1M28 100h1M7 101h1M38 101h1M40 101h1M6 102h1M39 102h1M3 103h1M6 103h1M4 104h1M6 104h1M4 105h1M10 105h1M4 106h1M11 106h1M20 106h1M22 106h1M11 107h1M21 107h1M11 108h1" />
<path stroke="#d2e077" d="M51 99h5M70 99h5M99 99h5M118 99h5M50 100h7M69 100h8M98 100h7M117 100h8M50 101h7M69 101h9M98 101h7M117 101h9M51 102h5M69 102h9M99 102h5M117 102h9M70 103h7M118 103h7M57 104h4M105 104h4M55 105h7M67 105h4M103 105h7M115 105h4M55 106h7M66 106h6M103 106h7M114 106h6M50 107h3M56 107h5M66 107h6M98 107h3M104 107h5M114 107h6M49 108h5M67 108h4M97 108h5M115 108h4M49 109h5M97 109h5M50 110h3M98 110h3" />
</svg>