<svg xmlns="http://www.w3.org/2000/svg" viewBox="0 -0.5 144 80" shape-rendering="crispEdges" width="144" height="80">
<metadata>Made with Pixels to Svg https://codepen.io/shshaw/pen/XbxvNj</metadata>
<path stroke="#5f7a79" d="M5 0h6M3 1h2M11 1h2M28 1h9M60 1h9M2 2h1M13 2h1M26 2h2M37 2h1M58 2h2M69 2h1M2 3h1M13 3h1M24 3h2M38 3h2M56 3h2M70 3h2M1 4h1M14 4h1M23 4h1M40 4h1M55 4h1M72 4h1M1 5h1M14 5h1M22 5h1M41 5h1M54 5h1M73 5h1M1 6h1M14 6h1M21 6h1M42 6h1M53 6h1M74 6h1M1 7h1M14 7h1M21 7h1M42 7h1M53 7h1M74 7h1M1 8h1M14 8h1M20 8h1M43 8h1M52 8h1M75 8h1M1 9h1M14 9h1M20 9h1M43 9h1M52 9h1M75 9h1M2 10h1M14 10h1M20 10h1M43 10h1M52 10h1M75 10h1M2 11h1M14 11h1M20 11h1M42 11h1M52 11h1M74 11h1M1 12h1M13 12h1M20 12h1M42 12h1M52 12h1M74 12h1M1 13h1M14 13h1M21 13h1M43 13h1M53 13h1M75 13h1M1 14h1M14 14h1M21 14h1M43 14h1M53 14h1M75 14h1M1 15h1M14 15h1M20 15h1M43 15h1M52 15h1M75 15h1M1 16h1M14 16h1M20 16h1M43 16h1M52 16h1M75 16h1M1 17h1M14 17h1M20 17h1M43 17h1M52 17h1M75 17h1M2 18h1M13 18h1M20 18h1M42 18h1M52 18h1M74 18h1M97 18h3M102 18h3M2 19h1M13 19h1M21 19h1M42 19h1M53 19h1M74 19h1M97 19h1M100 19h2M104 19h1M3 20h10M21 20h1M42 20h1M53 20h1M74 20h1M97 20h1M104 20h1M22 21h1M41 21h1M54 21h1M73 21h1M98 21h1M103 21h1M23 22h2M38 22h3M55 22h2M70 22h3M25 23h13M57 23h13M84 23h3M89 23h3M84 24h1M87 24h2M91 24h1M84 25h1M91 25h1M102 25h3M107 25h3M85 26h1M90 26h1M102 26h1M105 26h2M109 26h1M102 27h1M109 27h1M103 28h1M108 28h1M42 34h3M41 35h1M44 35h1M24 36h3M40 36h1M44 36h1M23 37h1M26 37h1M40 37h4M22 38h1M26 38h1M23 39h1M5 48h6M21 48h6M3 49h2M11 49h2M19 49h2M27 49h2M2 50h1M13 50h1M18 50h1M29 50h1M76 50h3M1 51h1M14 51h1M17 51h1M30 51h1M78 51h1M1 52h1M14 52h1M17 52h1M30 52h1M65 52h3M0 53h1M15 53h2M31 53h1M65 53h1M0 54h1M15 54h2M31 54h1M53 54h2M57 54h2M65 54h1M0 55h1M14 55h1M16 55h1M30 55h1M53 55h1M55 55h2M58 55h1M78 55h1M1 56h1M15 56h1M17 56h1M31 56h1M78 56h1M0 57h1M15 57h2M31 57h1M0 58h1M15 58h2M31 58h1M0 59h1M15 59h2M31 59h1M1 60h1M14 60h1M17 60h1M30 60h1M44 64h3M49 64h5M41 65h3M47 65h2M54 65h4M40 66h1M58 66h2M38 67h2M59 67h1M6 68h9M16 68h6M37 68h1M60 68h1M4 69h2M15 69h1M22 69h2M36 69h1M60 69h1M3 70h1M24 70h1M36 70h1M60 70h1M2 71h1M24 71h1M36 71h1M60 71h1M2 72h1M24 72h1M36 72h1M60 72h1M2 73h1M24 73h1M36 73h1M60 73h1M2 74h1M24 74h1M37 74h1M60 74h1M2 75h1M24 75h1M37 75h1M59 75h2M3 76h1M24 76h1M38 76h2M58 76h2M4 77h2M13 77h2M22 77h2M40 77h2M49 77h2M55 77h3M6 78h7M15 78h7M42 78h7M51 78h4" />
<path stroke="#97bb8e" d="M5 1h1M10 1h1M3 2h1M12 2h1M28 2h1M35 2h2M60 2h1M67 2h2M3 3h1M12 3h1M26 3h1M37 3h1M58 3h1M69 3h1M2 4h1M13 4h1M24 4h1M38 4h2M56 4h1M70 4h2M2 5h1M13 5h1M23 5h1M40 5h1M55 5h1M72 5h1M13 6h1M22 6h2M40 6h2M54 6h2M72 6h2M2 7h1M13 7h1M40 7h2M72 7h2M2 8h1M13 8h1M21 8h1M42 8h1M53 8h1M74 8h1M2 9h2M6 9h2M10 9h1M12 9h2M21 9h1M42 9h1M53 9h1M74 9h1M3 10h2M8 10h6M21 10h3M27 10h2M35 10h3M40 10h3M53 10h2M60 10h1M72 10h3M3 11h6M11 11h3M21 11h3M27 11h2M35 11h3M40 11h2M53 11h1M67 11h1M72 11h2M2 12h2M6 12h7M21 12h11M34 12h1M38 12h4M53 12h1M61 12h3M66 12h1M70 12h4M3 13h10M22 13h3M28 13h15M54 13h1M60 13h15M3 14h10M22 14h21M54 14h2M59 14h16M5 15h2M9 15h2M22 15h20M54 15h20M3 16h2M6 16h1M11 16h2M24 16h1M27 16h2M32 16h5M56 16h1M59 16h2M64 16h5M8 17h2M24 17h1M27 17h2M32 17h5M56 17h1M59 17h2M66 17h1M29 18h5M37 18h3M61 18h2M70 18h2M24 19h3M56 19h3M99 20h4M100 21h2M86 25h4M87 26h2M104 27h4M105 28h2M5 49h1M10 49h1M21 49h1M26 49h1M3 50h1M12 50h1M19 50h1M28 50h1M2 51h1M13 51h1M18 51h1M29 51h1M13 52h1M29 52h1M1 53h1M14 53h1M17 53h1M30 53h1M1 54h2M13 54h2M17 54h2M21 54h1M26 54h2M29 54h2M1 55h2M7 55h1M9 55h1M12 55h2M17 55h7M25 55h1M28 55h2M54 55h1M57 55h1M2 56h1M7 56h8M18 56h2M22 56h9M2 57h2M6 57h8M18 57h12M3 58h1M5 58h1M19 58h1M21 58h1M24 58h3M6 59h1M11 59h2M22 59h3M27 59h2M3 60h2M19 60h2M44 65h3M49 65h2M41 66h3M46 66h6M40 67h1M46 67h6M38 68h1M46 68h2M49 68h3M54 68h2M6 69h9M37 69h1M46 69h2M49 69h5M13 70h5M20 70h1M49 70h7M3 71h1M12 71h2M15 71h5M48 71h8M13 72h1M15 72h5M21 72h1M46 72h3M50 72h4M13 73h5M21 73h1M37 73h1M47 73h2M50 73h2M55 73h1M12 74h1M14 74h5M47 74h2M50 74h2M55 74h1M3 75h1M14 75h1M16 75h3M38 75h1M47 75h7M55 75h1M13 76h2M16 76h2M40 76h1M45 76h7M6 77h3M10 77h3M15 77h1M42 77h7" />
<path stroke="#aed499" d="M6 1h4M4 2h2M8 2h4M29 2h6M61 2h6M4 3h2M8 3h1M11 3h1M27 3h3M33 3h1M36 3h1M59 3h3M65 3h1M68 3h1M3 4h1M7 4h2M12 4h1M25 4h5M33 4h1M36 4h2M57 4h5M65 4h1M68 4h2M3 5h1M7 5h3M12 5h1M24 5h1M28 5h1M32 5h8M56 5h1M60 5h1M64 5h8M2 6h6M10 6h3M24 6h1M31 6h3M37 6h3M56 6h1M63 6h3M69 6h3M3 7h10M22 7h5M29 7h5M54 7h5M61 7h5M3 8h10M22 8h15M40 8h2M54 8h12M73 8h1M4 9h2M8 9h2M11 9h1M22 9h20M54 9h12M73 9h1M5 10h3M24 10h3M29 10h6M38 10h2M57 10h1M61 10h6M9 11h2M24 11h3M29 11h6M38 11h2M61 11h6M71 11h1M4 12h2M32 12h2M35 12h3M64 12h2M67 12h3M25 13h3M6 49h1M9 49h1M22 49h1M25 49h1M4 50h3M9 50h3M20 50h3M25 50h3M3 51h1M6 51h2M11 51h2M19 51h1M22 51h2M27 51h2M2 52h2M6 52h2M18 52h2M22 52h2M27 52h2M2 53h7M13 53h1M18 53h12M7 54h2M19 54h2M22 54h4M28 54h1M8 55h1M24 55h1M26 55h2M20 56h2M44 66h2M41 67h5M39 68h3M44 68h2M48 68h1M38 69h2M44 69h2M48 69h1M4 70h2M9 70h4M37 70h3M42 70h7M4 71h1M9 71h3M14 71h1M37 71h11M3 72h2M7 72h2M10 72h3M14 72h1M37 72h2M41 72h5M49 72h1M3 73h6M10 73h3M38 73h1M41 73h6M49 73h1M3 74h1M9 74h3M13 74h1M38 74h9M49 74h1M4 75h2M9 75h5M15 75h1M39 75h8M4 76h2M9 76h4M15 76h1M41 76h4M9 77h1" />
<path stroke="#c2e09a" d="M6 2h2M6 3h2M9 3h2M30 3h3M34 3h2M62 3h3M66 3h2M4 4h3M9 4h3M30 4h3M34 4h2M62 4h3M66 4h2M4 5h3M10 5h2M25 5h3M29 5h3M57 5h3M61 5h3M8 6h2M25 6h6M34 6h3M57 6h6M66 6h3M27 7h2M34 7h6M59 7h2M66 7h1M69 7h1M37 8h3M98 19h2M102 19h2M98 20h1M103 20h1M85 24h2M89 24h2M85 25h1M90 25h1M103 26h2M107 26h2M103 27h1M108 27h1M7 49h2M23 49h2M7 50h2M23 50h2M4 51h2M8 51h3M20 51h2M24 51h3M4 52h2M8 52h1M20 52h2M24 52h3M42 68h2M40 69h4M6 70h3M40 70h2M5 71h4M5 72h2M9 72h1M39 72h2M9 73h1M39 73h2M4 74h5M6 75h3M6 76h3" />
<path stroke="#8a4a70" d="M88 2h4M87 3h1M92 3h1M86 4h1M93 4h1M103 4h4M86 5h1M93 5h1M102 5h1M107 5h1M85 6h1M94 6h1M101 6h1M108 6h1M84 7h3M94 7h1M101 7h1M108 7h1M72 8h1M83 8h1M87 8h1M92 8h2M100 8h1M109 8h1M117 8h1M119 8h1M138 8h1M140 8h1M72 9h1M82 9h1M88 9h4M100 9h1M109 9h1M117 9h1M119 9h1M138 9h1M140 9h1M71 10h1M82 10h1M88 10h1M101 10h1M108 10h1M60 11h1M68 11h3M83 11h5M102 11h6M60 12h1M131 12h1M133 12h1M59 13h1M131 13h1M133 13h1M56 14h3M69 18h1M69 19h1M68 20h1M65 21h3M10 40h1M26 40h1M44 40h1M10 41h1M26 41h1M44 41h1M9 42h1M25 42h1M34 42h1M44 42h1M6 43h3M22 43h3M35 43h1M43 43h1M36 44h1M39 44h1M42 44h1M37 45h2M40 45h2M73 51h3M12 52h1M69 52h2M72 52h1M76 52h1M12 53h1M68 53h1M71 53h1M77 53h1M6 54h1M9 54h1M12 54h1M67 54h1M72 54h1M77 54h1M6 55h1M10 55h2M66 55h1M73 55h1M77 55h1M3 56h1M6 56h1M41 56h1M57 56h1M66 56h1M73 56h1M76 56h1M4 57h2M41 57h1M57 57h1M66 57h1M73 57h4M10 58h1M38 58h1M41 58h1M54 58h1M57 58h1M67 58h2M73 58h1M76 58h1M10 59h1M39 59h2M55 59h2M69 59h5M76 59h1M7 60h1M10 60h1M71 60h1M75 60h1M8 61h2M71 61h4" />
<path stroke="#bd757e" d="M88 3h2M87 4h2M92 4h1M88 5h5M104 5h3M89 6h3M105 6h2M102 7h1M105 7h2M70 8h2M84 8h3M102 8h6M68 9h4M84 9h3M103 9h3M68 10h1M70 10h1M58 11h2M56 12h4M56 13h1M58 13h1M67 18h2M65 19h4M65 20h1M67 20h1M36 38h3M35 39h1M37 39h3M8 40h2M24 40h2M35 40h3M39 40h1M6 41h4M22 41h4M35 41h5M6 42h1M8 42h1M22 42h1M24 42h1M35 42h4M73 52h1M75 52h1M117 52h4M11 53h1M69 53h2M73 53h4M116 53h1M10 54h2M68 54h2M71 54h1M74 54h1M76 54h1M103 54h2M116 54h1M118 54h3M5 55h1M67 55h6M105 55h1M4 56h2M68 56h1M70 56h3M101 56h1M105 56h1M40 57h1M56 57h1M69 57h3M102 57h3M39 58h2M55 58h2M70 58h3M9 59h1M8 60h2" />
<path stroke="#f3d8c5" d="M90 3h2M89 4h3M103 5h1M102 6h3M107 6h1M103 7h2M107 7h1M118 9h1M139 9h1M89 11h2M85 13h1M104 13h2M132 13h1M117 53h2M102 55h1" />
<path stroke="#694a87" d="M117 3h3M138 3h3M116 4h1M120 4h1M137 4h1M141 4h1M115 5h1M121 5h1M136 5h1M142 5h1M115 6h1M136 6h1M131 7h3M130 8h1M134 8h1M129 9h1M135 9h1M129 10h1" />
<path stroke="#a77bb3" d="M117 4h3M138 4h3M118 5h3M139 5h3M131 8h3M132 9h3" />
<path stroke="#af6776" d="M87 5h1M86 6h3M92 6h1M67 7h2M70 7h1M89 7h3M66 8h1M69 8h1M90 8h2M101 8h1M108 8h1M83 9h1M87 9h1M101 9h2M106 9h3M55 10h2M58 10h1M69 10h1M83 10h5M102 10h3M107 10h1M54 11h1M57 11h1M57 13h1M64 17h2M67 17h1M63 18h1M66 18h1M66 20h1M41 38h2M5 39h2M21 39h2M40 39h4M4 40h1M7 40h1M20 40h1M23 40h1M40 40h4M40 41h4M7 42h1M23 42h1M39 42h5M36 43h7M37 44h2M40 44h2M121 52h1M72 53h1M122 53h1M73 54h1M122 54h1M74 55h3M116 55h1M122 55h1M67 56h1M74 56h2M117 56h1M121 56h1M67 57h2M69 58h1" />
<path stroke="#90689f" d="M116 5h2M137 5h2M116 6h5M137 6h5M130 9h2M130 10h5" />
<path stroke="#e8b5ac" d="M93 6h1M87 7h2M92 7h2M67 8h1M88 8h2M118 8h1M139 8h1M89 10h2M105 10h2M55 11h1M85 12h1M104 12h2M132 12h1M64 18h1M5 40h1M21 40h1M119 53h3M117 54h1M121 54h1M103 55h2M117 55h5M102 56h3" />
<path stroke="#583f83" d="M121 6h1M142 6h1M116 7h5M137 7h5M135 10h1M130 11h5" />
<path stroke="#a35b70" d="M71 7h1M66 9h1M59 10h1M67 10h1M54 12h1M55 13h1M68 17h1M63 19h1M64 20h1M36 37h3M35 38h1M39 38h2M43 38h1M8 39h2M24 39h2M34 39h1M44 39h1M34 40h1M4 41h1M20 41h1M34 41h1M5 42h1M21 42h1M9 52h3M9 53h1M3 54h3M3 55h1M38 56h3M54 56h3M38 57h1M54 57h1M7 58h3M74 58h2M7 59h1M74 59h2M72 60h3" />
<path stroke="#d99a9a" d="M68 8h1M67 9h1M56 11h1M55 12h1M65 18h1M64 19h1M36 39h1M6 40h1M22 40h1M38 40h1M5 41h1M21 41h1M74 52h1M10 53h1M70 54h1M75 54h1M102 54h1M4 55h1M101 55h1M69 56h1M118 56h3M39 57h1M55 57h1M72 57h1M8 59h1" />
<path stroke="rgba(76,68,136,0.11764705882352941)" d="M116 9h1M120 9h1M137 9h1M141 9h1M92 10h1M117 10h3M138 10h3M92 11h2M83 12h1M87 12h6M102 12h1M107 12h1M82 13h2M87 13h1M101 13h2M107 13h2M130 13h1M134 13h1M83 14h4M102 14h6M131 14h3M114 23h1M123 23h1M3 24h2M11 24h2M114 24h2M121 24h3M2 25h2M12 25h2M115 25h7M128 25h1M2 26h4M10 26h4M27 26h1M36 26h1M59 26h1M68 26h1M128 26h2M143 26h1M3 27h4M8 27h5M25 27h3M36 27h3M57 27h3M68 27h3M129 27h3M142 27h2M5 28h6M24 28h3M37 28h3M56 28h3M69 28h3M131 28h2M140 28h3M24 29h4M36 29h4M56 29h4M68 29h4M132 29h9M25 30h6M33 30h6M57 30h6M65 30h6M27 31h10M59 31h10M80 43h1M95 43h1M99 43h1M103 43h1M107 43h1M114 43h1M124 43h1M81 44h14M100 44h3M104 44h3M115 44h2M119 44h1M122 44h2M117 45h2M120 45h2M99 58h1M103 58h1M107 58h1M114 58h1M124 58h1M83 59h1M93 59h1M100 59h3M104 59h3M115 59h2M119 59h1M122 59h2M0 60h1M15 60h2M31 60h1M84 60h2M88 60h1M91 60h2M117 60h2M120 60h2M134 60h1M137 60h1M0 61h2M14 61h2M17 61h1M30 61h2M86 61h2M89 61h2M132 61h3M137 61h3M1 62h3M12 62h2M17 62h3M28 62h3M133 62h6M2 63h10M19 63h10M36 76h2M2 77h2M36 77h4M58 77h6M2 78h4M13 78h2M22 78h4M38 78h4M49 78h2M55 78h5M4 79h20M40 79h19" />
<path stroke="#713970" d="M91 10h1M88 11h1M91 11h1M84 12h1M86 12h1M103 12h1M106 12h1M84 13h1M86 13h1M103 13h1M106 13h1" />
<path stroke="#6e967c" d="M2 13h1M13 13h1M2 14h1M13 14h1M2 15h3M7 15h2M11 15h3M21 15h1M42 15h1M53 15h1M74 15h1M2 16h1M5 16h1M7 16h4M13 16h1M21 16h3M25 16h2M29 16h3M37 16h6M53 16h3M57 16h2M61 16h3M69 16h6M2 17h6M10 17h4M21 17h3M25 17h2M29 17h3M37 17h6M53 17h3M57 17h2M61 17h3M69 17h6M3 18h10M21 18h8M34 18h3M40 18h2M53 18h8M72 18h2M3 19h10M22 19h2M27 19h15M54 19h2M59 19h4M70 19h4M22 20h20M54 20h10M69 20h5M23 21h18M55 21h10M68 21h5M99 21h1M102 21h1M25 22h13M57 22h13M100 22h2M86 26h1M89 26h1M87 27h2M104 28h1M107 28h1M105 29h2M41 36h2M23 38h2M77 51h1M77 52h1M67 53h1M66 54h1M77 56h1M1 57h1M14 57h1M17 57h1M30 57h1M77 57h1M1 58h2M4 58h1M6 58h1M11 58h4M17 58h2M20 58h1M22 58h2M27 58h4M1 59h5M13 59h2M17 59h5M25 59h2M29 59h2M2 60h1M5 60h2M11 60h3M18 60h1M21 60h9M2 61h6M10 61h4M18 61h12M4 62h8M20 62h8M51 65h3M52 66h6M52 67h7M52 68h2M56 68h4M16 69h6M54 69h6M18 70h2M21 70h3M56 70h4M20 71h4M56 71h4M20 72h1M22 72h2M54 72h6M18 73h3M22 73h2M52 73h3M56 73h4M19 74h5M52 74h3M56 74h4M19 75h5M54 75h1M56 75h3M18 76h6M52 76h6M16 77h6M51 77h4" />
<path stroke="#6b7470" d="M117 18h1M134 18h3M116 19h1M133 19h1M137 19h2M120 20h1M132 20h1M139 20h2M132 21h1M141 21h1M116 22h1M120 22h1M131 22h1M117 23h3M130 23h1M118 24h2M133 25h1M132 26h1M132 27h1M87 67h3M85 68h2M90 68h1M102 68h1M83 69h2M91 69h1M101 69h1M82 70h1M91 70h1M105 70h1M92 71h1M93 72h1M101 72h1M105 72h1M102 73h3M90 74h1M103 74h2M91 75h1M91 76h1" />
<path stroke="#818b83" d="M118 18h1M119 19h1M133 21h1M121 22h1M133 22h2M116 23h1M120 23h2M134 23h1M116 24h2M120 24h1M141 24h1M130 25h1M140 25h2M130 26h2M133 26h1M138 26h4M133 27h9M133 28h7M103 68h1M104 69h1M90 70h1M89 71h2M89 72h1M106 72h1M82 73h1M101 73h1M105 73h2M82 74h2M93 74h1M101 74h2M105 74h1M82 75h4M90 75h1M92 75h2M82 76h9M84 77h7" />
<path stroke="#b0b9ab" d="M117 19h2M118 20h2M120 21h1M102 69h2M103 70h2M105 71h1" />
<path stroke="#c1c8b9" d="M134 19h3M133 20h6M134 21h3M140 21h1M139 22h3M137 23h5M135 24h6M134 25h6M134 26h4M87 68h3M85 69h6M83 70h1M87 70h3M82 71h3M82 72h5M83 73h6M84 74h6M86 75h4" />
<path stroke="#545959" d="M116 20h1M116 21h1M121 21h1M115 22h1M122 22h1M142 22h1M115 23h1M122 23h1M142 23h1M129 24h1M142 24h1M129 25h1M142 25h1M142 26h1M101 70h1M81 71h1M101 71h1M106 71h1M81 72h1M100 72h1M107 72h1M81 73h1M94 73h1M100 73h1M107 73h1M81 74h1M94 74h1M81 75h1" />
<path stroke="#9da89a" d="M117 20h1M117 21h3M137 21h3M117 22h3M132 22h1M135 22h4M131 23h3M135 23h2M130 24h5M131 25h2M84 70h3M102 70h1M85 71h4M91 71h1M102 71h3M87 72h2M90 72h3M102 72h3M89 73h5M91 74h2" />
<path stroke="#90625d" d="M5 21h1M10 21h1M5 22h1M10 22h1M5 23h1M10 23h1M5 24h1M10 24h1M28 24h1M35 24h1M60 24h1M67 24h1M4 25h1M11 25h1M28 25h1M35 25h1M60 25h1M67 25h1M28 26h1M35 26h1M60 26h1M67 26h1M28 27h1M35 27h1M60 27h1M67 27h1M27 28h1M36 28h1M59 28h1M68 28h1M87 35h2M55 36h2M70 36h4M86 36h1M88 36h1M54 37h1M57 37h1M69 37h1M74 37h1M82 37h5M88 37h6M135 37h3M53 38h1M58 38h1M68 38h1M75 38h1M81 38h1M86 38h1M88 38h1M94 38h1M136 38h3M53 39h1M58 39h1M68 39h1M75 39h1M80 39h1M95 39h1M137 39h2M53 40h1M58 40h1M68 40h1M75 40h1M80 40h1M95 40h1M138 40h1M53 41h1M58 41h1M68 41h1M75 41h1M80 41h1M95 41h1M53 42h1M58 42h1M68 42h1M75 42h1M80 42h1M95 42h1M52 43h1M59 43h1M67 43h1M76 43h1M81 43h1M94 43h1M65 68h1M61 69h4M29 71h1M25 72h4M60 76h7M24 77h7" />
<path stroke="#aa7959" d="M6 21h4M7 22h1M9 22h1M29 24h6M61 24h6M30 25h4M62 25h4M134 37h1M133 38h3M133 39h4M133 40h5M133 41h6M134 42h4M61 70h1M61 71h2M61 72h2M25 73h2M61 73h2M25 74h1M61 74h2M25 75h2M61 75h1M25 76h1" />
<path stroke="#c49a6c" d="M6 22h1M8 22h1M6 23h4M6 24h4M5 25h6M6 26h4M7 27h1M30 27h1M32 27h3M62 27h1M64 27h3M28 28h8M60 28h8M28 29h8M60 29h8M31 30h2M63 30h2M87 36h1M87 37h1M84 38h2M87 38h1M89 38h5M85 39h10M86 40h8M90 41h2M54 42h1M56 42h1M70 42h1M72 42h3M86 42h7M53 43h6M68 43h8M54 44h4M68 44h8M55 45h1M71 45h2M65 69h2M64 70h3M64 71h3M29 72h1M64 72h4M27 73h4M65 73h3M26 74h5M64 74h3M27 75h5M65 75h2M26 76h5" />
<path stroke="#b68962" d="M29 25h1M34 25h1M61 25h1M66 25h1M29 26h6M61 26h6M29 27h1M31 27h1M61 27h1M63 27h1M54 40h1M57 40h1M69 40h1M74 40h1M85 40h1M94 40h1M54 41h4M69 41h6M85 41h5M92 41h3M55 42h1M57 42h1M69 42h1M71 42h1M85 42h1M93 42h2M84 43h10M62 70h2M63 71h1M63 72h1M63 73h2M63 74h1M62 75h3" />
<path stroke="#f3f4e7" d="M42 33h4M38 34h4M45 34h1M38 35h1M40 35h1M45 35h1M36 36h3M45 36h1M35 37h1M44 37h1M34 38h1M44 38h1M33 39h1M45 39h1M33 40h1M45 40h1M33 41h1M45 41h1M33 42h1M45 42h1M34 43h1M44 43h1M35 44h1M43 44h1M36 45h1M39 45h1M42 45h1M37 46h2M40 46h2M76 49h4M73 50h3M79 50h1M64 51h4M69 51h2M72 51h1M79 51h1M64 52h1M68 52h1M71 52h1M79 52h1M64 53h1M78 53h1M64 54h1M78 54h2M65 55h1M79 55h1M65 56h1M79 56h1M65 57h1M79 57h1M66 58h1M78 58h1M67 59h2M77 59h1M69 60h2M76 60h1M70 61h1M75 61h1M70 62h5M128 68h1M141 68h1M128 69h1M141 69h1M128 70h1M141 70h1M112 71h1M124 71h1M129 71h1M140 71h1M112 72h1M124 72h1M130 72h1M139 72h1M99 73h1M108 73h1M113 73h4M124 73h1M131 73h2M137 73h2M100 74h1M106 74h2M123 74h1M133 74h4M95 75h1M101 75h5M121 75h2M80 76h1M92 76h3M117 76h4M137 76h1M143 76h1M81 77h3M91 77h1M138 77h1M142 77h1M84 78h7M139 78h3" />
<path stroke="#b09643" d="M134 34h4M132 35h2M131 36h1M117 37h3M131 37h1M116 38h1M130 38h1M103 39h2M118 39h3M130 39h1M105 40h1M130 40h1M130 41h1" />
<path stroke="#754c60" d="M39 35h1M39 36h1M39 37h1" />
<path stroke="#82a884" d="M42 35h2M43 36h1M24 37h2M25 38h1M76 51h1M66 53h1" />
<path stroke="#eeee9b" d="M134 35h1M131 38h1" />
<path stroke="#eae178" d="M135 35h3M132 36h1M134 36h4M119 38h3M132 38h1M139 38h2M117 39h1M121 39h1M131 39h2M139 39h2M103 40h2M117 40h5M131 40h2M139 40h2M102 41h3M131 41h2M139 41h1M134 43h4M134 44h3" />
<path stroke="#957a4b" d="M138 35h2M140 36h1M120 37h2M140 37h1M122 38h1M141 38h1M116 39h1M122 39h1M141 39h1M116 40h1M122 40h1M141 40h1M101 41h1M105 41h1M117 41h1M121 41h1M141 41h1M102 42h3M131 42h1M140 42h1M131 43h1M140 43h1M132 44h2M138 44h2M134 45h4" />
<path stroke="#d4c169" d="M133 36h1M138 36h2M132 37h2M138 37h2M118 41h3M140 41h1M132 42h2M138 42h2M132 43h2M138 43h2M137 44h1" />
<path stroke="#dcb98a" d="M55 37h2M70 37h4M54 38h4M69 38h6M82 38h1M55 39h2M70 39h4M81 39h3M81 40h3M81 41h3M81 42h3M82 43h1" />
<path stroke="#e8cfa6" d="M83 38h1M54 39h1M57 39h1M69 39h1M74 39h1M84 39h1M55 40h2M70 40h4M84 40h1M84 41h1M84 42h1M83 43h1" />
<path stroke="#f3f2c0" d="M117 38h2" />
<path stroke="#bfa954" d="M102 39h1M101 40h1" />
<path stroke="#f4f4a0" d="M102 40h1" />
<path stroke="#67835c" d="M114 40h2M123 40h2M99 41h2M106 41h2M114 41h1M124 41h1M99 42h1M107 42h1M114 42h1M124 42h1M100 43h3M104 43h3M115 43h2M119 43h1M122 43h2M135 47h2M130 48h1M135 48h2M141 48h1M131 49h2M135 49h2M139 49h2M135 50h2M135 51h2M135 52h2M135 53h2M135 54h2M142 54h1M114 55h2M123 55h2M130 55h1M134 55h4M141 55h1M83 56h3M91 56h3M99 56h2M106 56h2M114 56h1M124 56h1M131 56h2M135 56h2M139 56h2M83 57h1M86 57h2M89 57h2M93 57h1M99 57h1M107 57h1M114 57h1M124 57h1M135 57h2M83 58h1M93 58h1M100 58h3M104 58h3M115 58h2M119 58h1M122 58h2M135 58h2M84 59h2M88 59h1M91 59h2M135 59h2M135 60h2M135 61h2M133 64h3M131 65h2M135 65h1M130 66h1M135 66h1M129 67h1M135 67h6M115 68h7M129 68h1M140 68h1M114 69h1M122 69h1M129 69h1M140 69h1M113 70h1M123 70h1M129 70h1M140 70h1M113 71h1M123 71h1M130 71h1M139 71h1M113 72h5M123 72h1M131 72h2M137 72h2M117 73h1M123 73h1M133 73h4M117 74h1M121 74h2M139 74h3M117 75h4M138 75h1M142 75h1M138 76h1M142 76h1M139 77h3" />
<path stroke="#c0d470" d="M115 41h2M122 41h2M115 42h1M123 42h1M131 47h2M139 47h2M131 48h1M140 48h1M130 53h2M140 53h2M130 54h1M141 54h1M115 56h2M122 56h2M84 57h2M91 57h2M115 57h1M123 57h1M84 58h1M92 58h1M133 67h2M132 68h6M132 69h6M117 70h3M133 70h4M116 71h5M118 72h3M118 73h2M139 75h2" />
<path stroke="#8db15d" d="M100 42h2M105 42h2M116 42h3M120 42h3M117 43h2M120 43h2M132 48h2M138 48h2M131 54h2M139 54h2M131 55h3M138 55h3M100 57h2M105 57h2M116 57h3M120 57h3M85 58h3M89 58h3M117 58h2M120 58h2M86 59h2M89 59h2M133 65h2M131 66h4M130 67h3M130 68h2M138 68h2M115 69h7M130 69h2M138 69h2M114 70h3M120 70h3M130 70h3M137 70h3M114 71h2M121 71h2M131 71h8M121 72h2M133 72h4M120 73h3M118 74h3M141 75h1M139 76h3" />
<path stroke="#78a158" d="M119 42h1M130 46h3M139 46h3M130 47h1M133 47h1M138 47h1M141 47h1M134 48h1M137 48h1M129 52h3M140 52h3M129 53h1M132 53h1M139 53h1M142 53h1M129 54h1M133 54h1M138 54h1M88 57h1M119 57h1M88 58h1" />
<path stroke="#566560" d="M117 44h2M120 44h2M135 46h2M133 49h2M137 49h2M133 56h2M137 56h2M117 59h2M120 59h2M86 60h2M89 60h2" />
<path stroke="#5f699c" d="M86 50h3M85 51h1M85 52h1M88 52h2M85 53h1M89 53h1M89 54h1" />
<path stroke="#555793" d="M89 50h2M91 51h1M91 52h1M91 53h1M85 54h1M91 54h1M85 55h1M91 55h1M86 56h5" />
<path stroke="#cbe0de" d="M86 51h2M86 52h1" />
<path stroke="#92b2d4" d="M88 51h3M90 52h1M86 53h1M90 53h1M86 54h1M90 54h1M86 55h5" />
<path stroke="#505e77" d="M78 52h1M78 57h1M77 58h1" />
<path stroke="#7180b1" d="M87 52h1M87 53h2M87 54h2" />
<path stroke="#54575e" d="M94 75h1M81 76h1" />
</svg>