<svg xmlns="http://www.w3.org/2000/svg" viewBox="0 -0.5 96 576" shape-rendering="crispEdges" width="96" height="576">
<metadata>Made with Pixels to Svg https://codepen.io/shshaw/pen/XbxvNj</metadata>
<path stroke="#dce0d2" d="M20 7h1M19 8h1M67 29h2M27 55h1M28 56h1" />
<path stroke="#c1c8b9" d="M21 7h1M22 8h1M69 29h2M26 55h1M25 56h1M64 403h1M68 403h1M64 404h1M68 404h1M65 405h3M16 411h1M20 411h1M17 412h3M79 446h1M79 447h1M31 454h1M56 498h2M57 499h1M54 500h1M56 500h1M54 501h2M7 506h1M11 506h1M8 507h3M86 546h2M86 547h1M87 548h1M89 548h1M88 549h2M36 554h1M40 554h1M37 555h3" />
<path stroke="#818b83" d="M20 8h2M19 9h4M19 10h4M19 11h1M22 11h1M19 12h1M22 12h1M67 30h1M70 30h1M67 31h4M67 32h4M67 33h4M68 34h2M26 56h2M25 57h4M25 58h4M25 59h1M28 59h1M25 60h4M76 73h1M76 74h1M75 75h2M73 76h4M74 77h2M66 401h1M64 405h1M68 405h1M64 406h1M68 406h1M64 407h1M68 407h1M64 408h1M68 408h1M16 412h1M20 412h1M16 413h1M20 413h1M16 414h1M20 414h1M16 415h5M16 416h5M77 444h1M77 445h1M77 446h1M79 448h1M78 449h2M78 450h2M78 451h2M31 455h1M30 456h2M31 457h1M31 458h1M29 459h1M31 459h1M29 460h1M29 461h1M61 497h1M62 498h1M58 499h1M62 499h1M59 500h1M61 500h1M60 501h1M60 502h1M59 503h1M57 504h2M4 507h1M11 507h1M5 508h1M11 508h1M15 508h1M7 509h1M11 509h1M15 509h1M7 510h5M13 510h2M82 545h1M81 546h1M81 547h1M85 547h1M82 548h1M84 548h1M83 549h1M83 550h1M84 551h1M85 552h2M36 555h1M43 555h1M32 556h1M36 556h1M42 556h1M32 557h1M36 557h1M40 557h1M33 558h2M36 558h5" />
<path stroke="#aa7959" d="M20 11h1M20 12h1M20 13h1M20 14h1M20 17h1M68 23h1M68 24h1M68 27h1M68 28h1M68 30h1M27 59h1M27 61h1M30 107h1M30 108h1M29 109h1M29 110h1M62 124h4M17 155h1M17 156h1M18 157h1M18 158h1M78 172h4M14 208h1M15 209h1M15 210h1M68 221h1M68 222h1M68 223h1M75 254h1M75 255h1M33 272h1M33 273h1M34 274h1M35 311h1M33 312h2M65 316h2M12 359h1M13 360h2M77 364h2" />
<path stroke="#90625d" d="M21 11h1M21 12h1M21 13h1M21 14h1M21 15h1M21 16h1M69 25h1M69 26h1M69 27h1M69 28h1M69 30h1M26 59h1M26 61h1M26 62h1M29 107h1M29 108h1M28 109h1M28 110h1M62 125h3M18 155h1M18 156h1M19 157h1M19 158h1M79 173h3M14 207h2M15 208h1M16 209h1M16 210h1M67 222h1M67 223h1M67 224h1M76 253h1M76 254h1M76 255h1M32 272h1M32 273h1M33 274h1M33 275h2M36 311h1M35 312h2M33 313h2M64 316h1M64 317h3M11 359h1M11 360h2M13 361h2M79 364h1M77 365h3" />
<path stroke="#5c4e92" d="M67 13h3M74 13h3M18 14h2M66 14h1M70 14h1M73 14h1M77 14h1M17 15h1M20 15h1M26 15h3M66 15h1M70 15h4M77 15h1M17 16h1M20 16h1M22 16h1M25 16h1M29 16h1M66 16h1M77 16h1M18 17h2M21 17h5M29 17h1M66 17h1M77 17h1M18 18h1M20 18h1M23 18h1M29 18h1M66 18h1M77 18h1M18 19h1M20 19h1M23 19h1M29 19h1M65 19h2M77 19h2M18 20h1M21 20h2M29 20h1M66 20h1M68 20h1M75 20h1M77 20h1M17 21h2M29 21h2M65 21h2M77 21h2M18 22h1M20 22h1M27 22h1M29 22h1M66 22h1M70 22h2M77 22h1M17 23h2M29 23h2M67 23h1M69 23h1M72 23h1M75 23h2M18 24h1M29 24h1M66 24h2M69 24h1M72 24h1M75 24h1M19 25h2M27 25h2M65 25h1M68 25h1M70 25h3M75 25h1M20 26h1M27 26h1M65 26h1M68 26h1M75 26h1M20 27h1M27 27h1M66 27h2M71 27h2M75 27h1M20 28h1M27 28h1M70 28h1M73 28h2M20 29h1M27 29h1M20 30h1M23 30h2M27 30h1M21 31h2M25 31h2M67 60h3M74 60h3M28 61h2M66 61h1M70 61h1M73 61h1M77 61h1M27 62h1M30 62h1M66 62h1M70 62h4M77 62h1M19 63h3M26 63h3M30 63h1M66 63h1M77 63h1M18 64h1M22 64h1M25 64h1M29 64h1M66 64h1M77 64h1M18 65h1M22 65h4M29 65h1M66 65h1M77 65h1M18 66h1M29 66h1M65 66h2M77 66h2M18 67h1M29 67h1M66 67h1M77 67h1M18 68h1M29 68h1M65 68h2M77 68h2M17 69h2M29 69h2M66 69h1M77 69h1M18 70h1M29 70h1M67 70h2M75 70h2M17 71h2M29 71h2M68 71h1M71 71h2M75 71h1M18 72h1M29 72h1M68 72h1M70 72h1M73 72h1M75 72h1M19 73h2M27 73h2M68 73h1M75 73h1M20 74h1M23 74h2M27 74h1M68 74h1M71 74h2M75 74h1M20 75h1M22 75h1M25 75h1M27 75h1M69 75h2M73 75h2M20 76h1M27 76h1M20 77h1M27 77h1M20 78h1M23 78h2M27 78h1M21 79h2M25 79h2M26 110h2M23 111h3M28 111h1M22 112h1M25 112h1M28 112h1M72 112h3M21 113h2M26 113h3M71 113h1M75 113h1M20 114h1M27 114h1M70 114h2M76 114h1M20 115h1M27 115h1M69 115h1M76 115h1M20 116h1M27 116h1M69 116h1M76 116h1M19 117h2M27 117h2M69 117h1M76 117h1M19 118h1M22 118h1M27 118h1M68 118h2M76 118h2M19 119h1M27 119h2M68 119h1M71 119h1M76 119h1M19 120h1M27 120h1M68 120h1M76 120h2M20 121h1M26 121h1M68 121h1M76 121h1M26 122h1M69 122h1M75 122h1M21 123h1M26 123h1M75 123h1M21 124h1M26 124h1M66 124h2M70 124h1M75 124h1M21 125h1M26 125h2M65 125h1M68 125h2M75 125h1M21 126h1M24 126h4M65 126h1M68 126h2M72 126h4M22 127h2M25 127h2M66 127h2M70 127h2M73 127h2M20 158h2M19 159h1M22 159h3M19 160h1M22 160h1M25 160h1M69 160h3M19 161h3M25 161h2M68 161h1M72 161h1M20 162h1M27 162h1M67 162h1M72 162h2M20 163h1M27 163h1M67 163h1M74 163h1M20 164h1M27 164h1M67 164h1M74 164h1M19 165h2M27 165h2M67 165h1M74 165h1M20 166h1M25 166h1M28 166h1M66 166h2M74 166h2M19 167h2M28 167h1M67 167h1M72 167h1M75 167h1M20 168h1M28 168h1M66 168h2M75 168h1M21 169h1M27 169h1M67 169h1M75 169h1M21 170h1M68 170h1M74 170h1M21 171h1M26 171h1M68 171h1M21 172h1M26 172h1M68 172h1M73 172h1M76 172h2M20 173h2M26 173h1M68 173h1M74 173h2M78 173h1M20 174h4M26 174h1M68 174h4M74 174h2M78 174h1M21 175h2M24 175h2M69 175h2M72 175h2M76 175h2M19 205h3M26 205h3M18 206h1M22 206h1M25 206h1M29 206h1M18 207h1M22 207h4M29 207h1M67 207h3M74 207h3M18 208h1M29 208h1M66 208h1M70 208h1M73 208h1M77 208h1M18 209h1M29 209h1M66 209h1M70 209h4M77 209h1M17 210h2M29 210h1M66 210h1M77 210h1M16 211h1M18 211h1M29 211h2M66 211h1M77 211h1M16 212h1M18 212h1M20 212h2M26 212h2M29 212h1M66 212h1M77 212h1M17 213h2M29 213h2M65 213h2M77 213h2M18 214h1M29 214h1M66 214h1M68 214h1M75 214h1M77 214h1M19 215h2M27 215h2M65 215h2M77 215h2M20 216h1M27 216h1M66 216h1M77 216h1M20 217h1M27 217h1M67 217h3M75 217h2M20 218h1M27 218h1M67 218h1M70 218h1M75 218h1M20 219h1M27 219h1M65 219h3M70 219h1M75 219h1M20 220h1M23 220h1M27 220h1M64 220h1M67 220h3M75 220h1M21 221h2M24 221h1M27 221h1M64 221h1M67 221h1M69 221h1M72 221h1M75 221h1M25 222h2M65 222h2M69 222h1M71 222h1M73 222h2M70 223h1M67 256h3M74 256h3M19 257h3M26 257h3M66 257h1M70 257h1M73 257h1M77 257h1M18 258h1M22 258h1M25 258h1M29 258h1M66 258h1M70 258h4M77 258h1M18 259h1M22 259h4M29 259h1M66 259h1M77 259h1M18 260h1M29 260h1M66 260h1M77 260h1M18 261h1M29 261h1M66 261h1M77 261h1M18 262h1M29 262h1M65 262h2M77 262h2M17 263h2M29 263h2M66 263h1M77 263h1M18 264h1M29 264h1M65 264h2M77 264h2M17 265h2M29 265h2M66 265h1M77 265h1M18 266h1M29 266h1M67 266h2M75 266h2M19 267h2M27 267h2M68 267h1M71 267h2M75 267h1M20 268h1M23 268h2M27 268h1M68 268h1M70 268h1M73 268h1M75 268h1M20 269h1M22 269h1M25 269h1M27 269h1M30 269h2M68 269h1M72 269h1M75 269h1M20 270h1M23 270h1M27 270h1M29 270h1M32 270h1M68 270h1M71 270h1M73 270h2M21 271h2M24 271h1M27 271h1M29 271h1M32 271h1M69 271h2M25 272h2M30 272h2M76 303h3M24 304h3M75 304h1M79 304h1M23 305h1M27 305h1M74 305h2M80 305h1M22 306h2M28 306h1M73 306h1M80 306h1M21 307h1M28 307h1M73 307h1M80 307h1M21 308h1M28 308h1M73 308h1M80 308h1M21 309h1M28 309h1M72 309h2M80 309h2M20 310h2M28 310h2M72 310h1M75 310h2M80 310h1M20 311h1M23 311h1M28 311h1M72 311h1M80 311h2M20 312h1M28 312h2M72 312h1M80 312h1M20 313h1M28 313h1M31 313h2M73 313h1M79 313h1M21 314h1M27 314h2M30 314h1M33 314h1M79 314h1M27 315h1M30 315h1M33 315h1M68 315h2M74 315h1M79 315h1M22 316h1M27 316h1M31 316h2M67 316h1M70 316h1M73 316h2M79 316h1M22 317h1M27 317h2M67 317h1M70 317h1M73 317h3M78 317h1M22 318h1M25 318h4M68 318h2M74 318h4M23 319h2M26 319h2M65 351h3M21 352h3M64 352h1M68 352h1M20 353h1M24 353h1M63 353h1M68 353h2M19 354h1M24 354h2M63 354h1M70 354h1M19 355h1M26 355h1M63 355h1M70 355h1M19 356h1M26 356h1M63 356h1M70 356h1M19 357h1M26 357h1M62 357h2M70 357h2M18 358h2M26 358h2M63 358h1M67 358h2M71 358h1M19 359h1M24 359h1M27 359h1M62 359h2M71 359h1M18 360h2M27 360h1M63 360h1M71 360h1M15 361h2M19 361h1M27 361h1M64 361h1M70 361h1M14 362h1M17 362h1M19 362h2M26 362h1M64 362h1M14 363h1M17 363h1M20 363h1M64 363h1M69 363h1M74 363h2M15 364h2M20 364h1M25 364h1M64 364h1M69 364h2M73 364h1M76 364h1M19 365h2M25 365h1M65 365h1M68 365h3M73 365h1M76 365h1M19 366h4M25 366h1M66 366h4M74 366h2M20 367h2M23 367h2M67 398h3M74 398h3M66 399h1M70 399h1M73 399h1M77 399h1M70 400h4M77 400h1M19 401h3M26 401h3M77 401h1M18 402h1M22 402h1M25 402h1M29 402h1M77 402h1M18 403h1M22 403h4M29 403h1M77 403h1M18 404h1M29 404h1M77 404h2M18 405h1M29 405h1M75 405h1M77 405h1M18 406h1M29 406h1M77 406h2M17 407h2M29 407h2M77 407h1M18 408h1M20 408h1M27 408h1M29 408h1M75 408h2M29 409h2M77 409h1M29 410h1M68 410h1M77 410h1M27 411h2M68 411h1M75 411h2M29 412h1M68 412h1M75 412h1M29 413h1M68 413h1M75 413h1M23 414h2M27 414h2M68 414h1M71 414h2M75 414h1M22 415h1M25 415h2M69 415h2M73 415h2M67 446h3M74 446h3M66 447h1M70 447h1M73 447h1M77 447h1M66 448h1M70 448h4M77 448h1M66 449h1M77 449h1M19 450h3M26 450h3M66 450h1M77 450h1M18 451h1M22 451h1M25 451h1M29 451h1M66 451h1M77 451h1M18 452h1M22 452h4M29 452h1M65 452h2M77 452h2M18 453h1M29 453h1M66 453h1M77 453h1M18 454h1M29 454h1M65 454h2M77 454h2M17 455h2M29 455h2M66 455h1M77 455h1M18 456h1M29 456h1M67 456h2M75 456h2M17 457h2M29 457h2M66 457h1M75 457h1M18 458h1M29 458h1M66 458h1M75 458h1M19 459h2M27 459h2M67 459h2M71 459h2M75 459h1M18 460h1M23 460h2M27 460h1M68 460h1M70 460h1M73 460h1M75 460h1M18 461h1M22 461h1M25 461h1M27 461h1M68 461h1M75 461h1M19 462h2M23 462h2M27 462h1M68 462h1M71 462h2M75 462h1M21 463h2M25 463h2M69 463h2M73 463h2M71 494h3M70 495h1M74 495h1M63 496h2M69 496h2M75 496h1M65 497h1M68 497h1M75 497h1M23 498h4M65 498h1M68 498h1M75 498h1M22 499h1M27 499h1M64 499h1M68 499h1M75 499h1M21 500h2M28 500h1M67 500h2M75 500h2M20 501h1M28 501h1M67 501h1M70 501h1M75 501h1M20 502h1M28 502h1M67 502h1M75 502h2M19 503h2M28 503h2M67 503h1M75 503h1M19 504h1M22 504h1M28 504h1M68 504h1M74 504h1M19 505h1M28 505h2M75 505h1M19 506h1M28 506h1M69 506h1M75 506h1M20 507h1M27 507h2M69 507h1M74 507h1M17 508h1M28 508h1M69 508h1M74 508h1M18 509h1M21 509h1M28 509h1M70 509h1M73 509h1M18 510h1M22 510h1M26 510h2M70 510h1M73 510h1M16 511h2M23 511h3M71 511h2M70 542h3M69 543h1M73 543h1M68 544h1M73 544h2M79 544h2M68 545h1M75 545h1M78 545h1M21 546h4M68 546h1M75 546h1M78 546h1M20 547h1M25 547h1M68 547h1M75 547h1M79 547h1M19 548h1M25 548h2M67 548h2M75 548h2M19 549h1M27 549h1M68 549h1M73 549h1M76 549h1M19 550h1M27 550h1M67 550h2M76 550h1M18 551h2M27 551h2M68 551h1M76 551h1M19 552h1M25 552h1M28 552h1M69 552h1M75 552h1M18 553h2M28 553h1M68 553h1M19 554h1M28 554h1M68 554h1M74 554h1M19 555h2M27 555h1M69 555h1M74 555h1M19 556h1M30 556h1M69 556h1M74 556h1M19 557h1M26 557h1M29 557h1M70 557h1M73 557h1M20 558h2M25 558h1M29 558h1M70 558h1M73 558h1M22 559h3M30 559h2M71 559h2" />
<path stroke="#f3f2c0" d="M67 14h3M74 14h3M18 15h1M69 15h1M74 15h1M18 16h1M26 16h3M69 16h1M74 16h1M26 17h1M67 17h3M74 17h3M22 18h1M26 18h1M67 18h3M74 18h3M19 19h1M22 19h1M26 19h3M67 19h10M19 20h2M26 20h3M67 20h1M69 20h6M76 20h1M19 21h10M67 21h10M19 22h1M21 22h6M28 22h1M69 22h1M72 22h3M19 23h10M71 23h1M21 24h6M71 24h1M66 25h1M73 25h2M24 26h1M66 26h1M70 26h5M21 27h2M25 27h2M21 28h6M21 29h6M67 61h3M74 61h3M29 62h1M67 62h3M74 62h3M29 63h1M67 63h3M74 63h3M19 64h3M26 64h3M67 64h10M19 65h3M26 65h3M67 65h10M19 66h3M26 66h3M67 66h10M19 67h10M67 67h10M19 68h10M67 68h10M19 69h10M67 69h10M19 70h10M19 71h10M19 72h10M69 72h1M71 72h2M74 72h1M69 73h6M21 75h1M23 75h2M26 75h1M21 76h6M21 77h6M23 112h2M26 112h2M23 113h1M72 113h3M21 114h3M26 114h1M72 114h1M75 114h1M21 115h6M70 115h3M75 115h1M21 116h6M70 116h6M21 117h6M70 117h6M20 118h2M23 118h4M70 118h6M20 119h7M69 119h2M72 119h4M20 120h3M25 120h2M69 120h7M69 121h3M74 121h2M25 122h1M22 123h4M74 123h1M22 124h4M71 124h4M22 125h4M67 125h1M70 125h5M67 126h1M20 160h2M23 160h2M24 161h1M69 161h3M21 162h1M24 162h3M68 162h1M71 162h1M21 163h6M68 163h1M71 163h3M21 164h6M68 164h6M21 165h6M68 165h6M21 166h4M26 166h2M68 166h6M21 167h7M68 167h4M73 167h2M21 168h2M25 168h3M68 168h7M68 169h2M72 169h3M22 170h1M22 171h4M69 171h1M22 172h4M69 172h4M22 173h4M69 173h5M76 173h1M76 174h1M19 206h3M26 206h3M21 207h1M26 207h1M21 208h1M26 208h1M67 208h3M74 208h3M19 209h3M26 209h3M69 209h1M74 209h1M19 210h3M26 210h3M69 210h1M74 210h1M19 211h10M67 211h3M74 211h3M17 212h1M19 212h1M22 212h4M28 212h1M67 212h3M74 212h3M19 213h10M67 213h10M21 214h6M67 214h1M69 214h6M76 214h1M67 215h10M24 216h1M69 216h6M21 217h2M25 217h2M21 218h6M69 218h1M72 218h1M21 219h6M69 219h1M73 219h2M24 220h3M65 220h1M70 220h5M65 221h1M70 221h2M67 257h3M74 257h3M19 258h3M26 258h3M67 258h3M74 258h3M19 259h3M26 259h3M67 259h3M74 259h3M19 260h3M26 260h3M67 260h10M19 261h10M67 261h10M19 262h10M67 262h10M19 263h10M67 263h10M19 264h10M67 264h10M19 265h10M67 265h10M19 266h10M69 268h1M71 268h2M74 268h1M21 269h1M23 269h2M26 269h1M69 269h3M24 270h3M30 270h2M76 304h3M24 305h3M76 305h1M79 305h1M24 306h1M27 306h1M74 306h3M79 306h1M22 307h3M27 307h1M74 307h6M22 308h6M74 308h6M22 309h6M74 309h6M22 310h6M73 310h2M77 310h3M21 311h2M24 311h4M73 311h7M21 312h7M73 312h3M78 312h2M21 313h3M26 313h2M31 314h1M31 315h1M75 315h4M23 316h4M68 316h1M75 316h4M23 317h4M68 317h1M65 352h3M21 353h3M64 353h1M67 353h1M20 354h1M23 354h1M64 354h1M67 354h3M20 355h1M23 355h3M64 355h6M20 356h6M64 356h6M20 357h6M64 357h6M20 358h6M64 358h3M69 358h2M20 359h4M25 359h2M64 359h7M20 360h7M64 360h2M68 360h3M20 361h2M24 361h3M16 362h1M16 363h1M65 363h4M21 364h4M65 364h4M75 364h1M21 365h4M75 365h1M67 399h3M74 399h3M69 400h1M74 400h1M69 401h1M74 401h1M19 402h3M26 402h3M69 402h1M74 402h3M21 403h1M26 403h1M74 403h3M21 404h1M26 404h1M70 404h7M19 405h3M26 405h3M70 405h5M76 405h1M19 406h3M26 406h3M70 406h7M19 407h10M70 407h5M19 408h1M21 408h6M28 408h1M20 409h9M72 409h1M75 409h1M21 410h6M69 410h2M73 410h3M69 411h6M24 412h1M27 412h1M69 412h6M22 413h1M25 413h3M71 413h2M67 447h3M74 447h3M67 448h3M74 448h3M67 449h3M74 449h3M67 450h10M19 451h3M26 451h3M67 451h10M19 452h3M26 452h3M67 452h10M19 453h3M26 453h3M67 453h10M19 454h10M67 454h10M19 455h10M67 455h10M19 456h10M19 457h10M68 457h1M19 458h10M68 458h7M69 459h2M73 459h2M20 460h1M69 460h1M71 460h2M74 460h1M20 461h2M23 461h2M26 461h1M69 461h6M71 495h3M71 496h1M74 496h1M64 497h1M69 497h3M74 497h1M64 498h1M69 498h6M23 499h4M69 499h6M23 500h2M27 500h1M69 500h6M21 501h4M27 501h1M68 501h2M71 501h4M21 502h7M68 502h7M21 503h7M68 503h3M73 503h2M20 504h2M23 504h5M20 505h8M73 505h1M20 506h3M26 506h2M70 506h4M70 507h4M26 508h1M70 508h4M17 509h1M22 509h5M17 510h1M70 543h3M69 544h1M72 544h1M69 545h1M72 545h3M79 545h1M69 546h6M79 546h1M21 547h4M69 547h6M20 548h1M23 548h2M69 548h6M20 549h1M23 549h4M69 549h4M74 549h2M20 550h7M69 550h7M20 551h7M69 551h2M73 551h3M20 552h5M26 552h2M20 553h8M70 553h1M20 554h2M25 554h3M70 554h4M70 555h4M21 556h1M70 556h4M21 557h5M30 557h1M30 558h1" />
<path stroke="#ddd5de" d="M19 15h1M19 16h1M70 16h4M70 17h4M21 18h1M24 18h2M70 18h4M21 19h1M24 19h2M23 20h3M70 23h1M70 24h1M67 25h1M67 26h1M70 27h1M73 27h2M21 30h2M25 30h2M28 62h1M70 63h4M22 66h4M69 74h2M73 74h2M21 78h2M25 78h2M26 111h2M66 125h1M22 126h2M66 126h1M70 126h2M20 159h2M77 173h1M24 174h2M72 174h2M77 174h1M22 208h4M22 209h4M22 210h4M70 210h4M17 211h1M70 211h4M70 212h4M68 218h1M68 219h1M21 220h2M66 220h1M25 221h2M66 221h1M73 221h2M70 222h1M70 259h4M22 260h4M73 269h2M21 270h2M69 270h2M25 271h2M30 271h2M32 314h1M32 315h1M69 316h1M69 317h1M76 317h2M23 318h2M15 362h1M15 363h1M74 364h1M66 365h2M74 365h1M23 366h2M70 401h4M70 402h4M70 403h4M22 404h4M22 405h4M22 406h4M76 409h1M76 410h1M28 412h1M28 413h1M69 413h2M73 413h2M22 414h1M25 414h2M69 414h2M73 414h2M70 449h4M22 453h4M67 457h1M67 458h1M19 460h1M19 461h1M21 462h2M25 462h2M69 462h2M73 462h2M63 497h1M74 505h1M74 506h1M27 508h1M27 509h1M71 509h2M16 510h1M23 510h3M71 510h2M80 545h1M69 553h1M69 554h1M20 556h1M20 557h1M71 557h2M22 558h3M31 558h1M71 558h2" />
<path stroke="#e8b5ac" d="M67 15h2M75 15h2M67 16h2M75 16h2M27 17h2M19 18h1M27 18h2M24 113h2M24 114h2M73 114h2M73 115h2M22 161h2M22 162h2M69 162h2M69 163h2M19 207h2M27 207h2M19 208h2M27 208h2M67 209h2M75 209h2M67 210h2M75 210h2M77 305h2M25 306h2M77 306h2M25 307h2M65 353h2M21 354h2M65 354h2M21 355h2M68 400h1M75 400h2M68 401h1M75 401h2M19 403h2M27 403h2M19 404h2M27 404h2M72 496h2M72 497h2M25 500h2M25 501h2M70 544h2M70 545h2M21 548h2M21 549h2" />
<path stroke="#f3d8c5" d="M67 22h2M75 22h2M19 24h2M27 24h2M23 120h2M72 121h2M23 168h2M70 169h2M19 214h2M27 214h2M67 216h2M75 216h2M76 312h2M24 313h2M66 360h2M22 361h2M75 407h2M27 410h2M71 503h2M23 506h3M71 551h2M22 554h3" />
<path stroke="#766daa" d="M73 23h2M73 24h2M21 25h6M21 26h2M25 26h2M69 70h6M69 71h2M73 71h2M21 73h6M21 74h2M25 74h2M21 121h5M21 122h4M70 122h5M70 123h4M22 169h5M23 170h4M69 170h5M70 171h4M21 215h6M21 216h2M25 216h2M70 217h5M73 218h2M69 266h6M21 267h6M69 267h2M73 267h2M21 268h2M25 268h2M74 313h5M22 314h5M74 314h5M22 315h5M65 361h5M21 362h5M65 362h5M21 363h5M70 408h5M69 409h2M73 409h2M22 411h5M22 412h1M25 412h2M69 456h6M69 457h6M21 459h6M21 460h2M25 460h2M69 504h5M69 505h4M21 507h6M21 508h5M70 552h5M71 553h4M21 555h6M22 556h5" />
<path stroke="#eae178" d="M23 26h1M23 27h2M20 122h1M20 123h1M69 123h1M69 124h1M27 170h1M27 171h1M74 171h1M74 172h1M23 216h1M23 217h2M71 218h1M71 219h2M73 314h1M21 315h1M73 315h1M21 316h1M21 317h1M70 362h1M26 363h1M70 363h1M26 364h1M26 365h1M71 409h1M71 410h2M23 412h1M23 413h2M68 505h1M68 506h1M20 508h1M75 553h1M75 554h1M27 556h1" />
<path stroke="#818181" d="M29 104h2M29 105h3M30 106h3M31 107h1M60 124h2M60 125h2M60 126h2M60 127h2M61 128h1M17 152h2M16 153h3M15 154h3M16 155h1M82 172h2M82 173h2M82 174h2M82 175h2M82 176h1M13 205h1M11 206h4M11 207h3M12 208h2M66 224h1M68 224h2M66 225h4M66 226h4M66 227h1M68 227h2M74 250h2M77 250h1M74 251h4M74 252h4M74 253h2M77 253h1M35 274h2M35 275h3M34 276h4M35 277h1M36 308h2M35 309h3M35 310h4M37 311h1M63 316h1M62 317h2M61 318h4M61 319h4M10 356h2M10 357h3M9 358h4M10 359h1M80 364h1M80 365h2M79 366h4M79 367h4" />
<path stroke="#b7b7b7" d="M10 206h1M10 207h1M11 208h1M12 209h2M69 223h1M70 224h1M70 225h1M70 226h1M70 227h1M69 228h1M74 249h1M73 250h1M73 251h1M73 252h1M73 253h1M74 254h1M35 273h2M37 274h1M38 275h1M38 276h1M36 307h2M35 308h1M34 309h1M34 310h1M60 319h1M65 319h1M61 320h4M10 355h2M12 356h1M13 357h1M13 358h1M78 367h1M83 367h1M79 368h4" />
<path stroke="#6b7470" d="M65 400h3M65 401h1M67 401h1M64 402h5M63 403h1M69 403h1M63 404h1M69 404h1M17 409h3M16 410h5M15 411h1M21 411h1M15 412h1M21 412h1M76 443h3M76 444h1M78 444h1M75 445h2M78 445h2M78 446h1M80 446h1M80 447h1M30 453h2M32 454h1M32 455h1M30 458h1M30 459h1M28 460h1M30 460h1M60 496h1M56 497h1M59 497h1M55 498h1M54 499h1M53 500h1M53 501h1M52 502h2M51 503h1M51 504h1M3 505h2M7 505h5M3 506h1M5 506h2M12 506h3M3 507h1M6 507h1M12 507h1M15 507h1M83 544h1M84 545h1M87 545h1M88 546h1M89 547h1M90 548h1M90 549h1M90 550h2M92 551h1M92 552h1M36 553h5M43 553h2M33 554h3M41 554h2M44 554h1M32 555h1M35 555h1M41 555h1M44 555h1" />
<path stroke="#545959" d="M65 403h3M65 404h3M63 405h1M69 405h1M63 406h1M69 406h1M63 407h1M66 407h1M69 407h1M63 408h1M69 408h1M64 409h5M17 411h3M15 413h1M18 413h1M21 413h1M15 414h1M21 414h1M15 415h1M21 415h1M15 416h1M21 416h1M16 417h5M78 447h1M78 448h1M80 448h1M80 449h1M80 450h1M80 451h1M79 452h1M30 454h1M32 456h1M32 457h1M32 458h1M32 459h1M31 460h1M28 461h1M30 461h1M28 462h3M61 496h1M57 497h1M62 497h1M58 498h1M60 498h2M63 498h1M55 499h2M59 499h1M61 499h1M63 499h1M55 500h1M60 500h1M62 500h1M61 501h1M54 502h1M61 502h1M55 503h1M60 503h1M52 504h5M59 504h1M57 505h2M8 506h3M4 508h1M6 508h1M12 508h3M16 508h1M6 509h1M12 509h3M16 509h1M6 510h1M12 510h1M15 510h1M7 511h5M13 511h2M82 544h1M81 545h1M86 545h1M80 546h1M82 546h2M85 546h1M80 547h1M82 547h1M84 547h1M87 547h2M81 548h1M83 548h1M88 548h1M82 549h1M82 550h1M89 550h1M83 551h1M88 551h1M84 552h1M87 552h5M85 553h2M37 554h3M31 556h1M33 556h3M41 556h1M43 556h1M31 557h1M33 557h3M41 557h1M32 558h1M35 558h1M41 558h1M33 559h2M36 559h5" />
<path stroke="#9da89a" d="M65 406h3M65 407h1M67 407h1M65 408h3M17 413h1M19 413h1M17 414h3M60 497h1M59 498h1M57 500h2M56 501h4M55 502h5M52 503h3M56 503h3M4 506h1M5 507h1M7 507h1M13 507h2M7 508h4M8 509h3M83 545h1M84 546h1M85 548h2M84 549h4M84 550h5M85 551h3M89 551h3M43 554h1M33 555h2M40 555h1M42 555h1M37 556h4M37 557h3" />
</svg>