<svg xmlns="http://www.w3.org/2000/svg" viewBox="0 -0.5 192 192" shape-rendering="crispEdges" width="192" height="192">
<metadata>Made with Pixels to Svg https://codepen.io/shshaw/pen/XbxvNj</metadata>
<path stroke="#5c4e92" d="M19 16h3M26 16h3M66 16h4M75 16h3M115 16h3M122 16h3M163 16h3M170 16h3M18 17h1M22 17h1M25 17h1M29 17h1M65 17h1M69 17h6M78 17h1M114 17h1M118 17h1M121 17h1M125 17h1M162 17h1M166 17h1M169 17h1M173 17h1M18 18h1M22 18h4M29 18h1M65 18h1M78 18h1M114 18h1M118 18h4M125 18h1M162 18h1M166 18h4M173 18h1M18 19h1M29 19h1M65 19h1M78 19h1M114 19h1M125 19h1M162 19h1M173 19h1M18 20h1M29 20h1M66 20h1M77 20h1M114 20h1M125 20h1M162 20h1M173 20h1M18 21h1M29 21h1M65 21h2M77 21h2M114 21h1M125 21h1M162 21h1M173 21h1M17 22h2M29 22h2M66 22h1M68 22h1M75 22h1M77 22h1M113 22h2M125 22h2M161 22h2M173 22h2M18 23h1M20 23h1M27 23h1M29 23h1M65 23h2M77 23h2M114 23h1M116 23h1M123 23h1M125 23h1M162 23h1M164 23h1M171 23h1M173 23h1M17 24h2M29 24h2M66 24h1M77 24h1M113 24h2M125 24h2M161 24h2M173 24h2M18 25h1M29 25h1M67 25h2M75 25h2M114 25h1M125 25h1M162 25h1M173 25h1M19 26h2M27 26h2M68 26h1M75 26h1M114 26h3M123 26h2M163 26h2M171 26h3M18 27h1M29 27h1M67 27h1M76 27h1M114 27h1M123 27h2M163 27h2M173 27h1M18 28h1M29 28h1M67 28h1M76 28h1M115 28h1M125 28h1M162 28h1M172 28h1M19 29h2M27 29h2M68 29h1M75 29h1M116 29h1M122 29h1M125 29h1M162 29h1M165 29h1M171 29h1M20 30h1M23 30h2M27 30h1M68 30h1M71 30h2M75 30h1M116 30h1M119 30h7M162 30h7M171 30h1M21 31h2M25 31h2M69 31h2M73 31h2M117 31h2M169 31h2M19 64h3M26 64h3M66 64h4M75 64h3M115 64h3M122 64h3M163 64h3M170 64h3M18 65h1M22 65h1M25 65h1M29 65h1M65 65h1M69 65h6M78 65h1M114 65h1M118 65h1M121 65h1M125 65h1M162 65h1M166 65h1M169 65h1M173 65h1M18 66h1M22 66h4M29 66h1M65 66h1M78 66h1M114 66h1M118 66h4M125 66h1M162 66h1M166 66h4M173 66h1M18 67h1M29 67h1M65 67h1M78 67h1M114 67h1M125 67h1M162 67h1M173 67h1M18 68h1M29 68h1M66 68h1M77 68h1M114 68h1M125 68h1M162 68h1M173 68h1M18 69h1M29 69h1M65 69h2M77 69h2M114 69h1M125 69h1M162 69h1M173 69h1M17 70h2M29 70h2M66 70h1M77 70h1M113 70h2M125 70h2M161 70h2M173 70h2M18 71h1M29 71h1M65 71h2M77 71h2M114 71h1M125 71h1M162 71h1M173 71h1M17 72h2M29 72h2M66 72h1M77 72h1M113 72h2M125 72h2M161 72h2M173 72h2M18 73h1M29 73h1M67 73h2M75 73h2M114 73h1M125 73h1M162 73h1M173 73h1M19 74h2M27 74h2M68 74h1M75 74h1M115 74h2M123 74h3M162 74h3M171 74h2M18 75h1M23 75h2M29 75h1M67 75h1M71 75h2M76 75h1M115 75h2M119 75h2M125 75h1M162 75h1M167 75h2M171 75h2M18 76h1M22 76h1M25 76h1M29 76h1M67 76h1M70 76h1M73 76h1M76 76h1M114 76h1M118 76h1M121 76h1M124 76h1M163 76h1M166 76h1M169 76h1M173 76h1M19 77h2M27 77h2M68 77h1M75 77h1M114 77h1M117 77h1M123 77h1M164 77h1M170 77h1M173 77h1M20 78h1M23 78h2M27 78h1M68 78h1M71 78h2M75 78h1M114 78h7M123 78h1M164 78h1M167 78h7M21 79h2M25 79h2M69 79h2M73 79h2M121 79h2M165 79h2M23 112h3M72 112h3M119 112h3M167 112h3M22 113h1M26 113h1M69 113h3M75 113h1M118 113h1M122 113h1M166 113h1M170 113h1M21 114h2M27 114h1M68 114h1M76 114h1M117 114h2M123 114h1M165 114h2M171 114h1M20 115h1M27 115h1M68 115h1M76 115h1M116 115h1M123 115h1M164 115h1M171 115h1M20 116h1M27 116h1M68 116h1M75 116h1M116 116h1M123 116h1M164 116h1M171 116h1M20 117h1M27 117h1M67 117h2M75 117h2M116 117h1M123 117h1M164 117h1M171 117h1M19 118h2M27 118h2M67 118h1M70 118h1M75 118h1M115 118h2M123 118h2M163 118h2M171 118h2M19 119h1M22 119h1M27 119h1M67 119h1M75 119h2M115 119h1M118 119h1M123 119h1M163 119h1M166 119h1M171 119h1M19 120h1M27 120h2M67 120h1M75 120h1M115 120h1M123 120h2M163 120h1M171 120h2M19 121h1M27 121h1M68 121h1M74 121h1M115 121h1M123 121h1M163 121h1M171 121h1M20 122h1M26 122h1M75 122h1M116 122h1M122 122h1M164 122h1M170 122h1M27 123h1M69 123h1M75 123h1M123 123h1M166 123h1M170 123h1M21 124h1M27 124h1M69 124h1M74 124h1M117 124h1M123 124h1M165 124h2M170 124h1M21 125h1M26 125h1M69 125h1M74 125h1M116 125h1M121 125h2M164 125h2M167 125h1M171 125h1M22 126h1M25 126h1M70 126h1M73 126h1M116 126h1M119 126h4M164 126h5M171 126h1M23 127h2M71 127h2M117 127h2M120 127h2M165 127h2M169 127h2M22 160h3M69 160h3M118 160h3M166 160h3M21 161h1M25 161h1M68 161h1M72 161h3M117 161h1M121 161h1M165 161h1M169 161h1M20 162h1M25 162h2M67 162h1M75 162h1M116 162h1M121 162h2M164 162h1M169 162h2M20 163h1M27 163h1M67 163h1M75 163h1M116 163h1M123 163h1M164 163h1M171 163h1M20 164h1M27 164h1M68 164h1M75 164h1M116 164h1M123 164h1M164 164h1M171 164h1M20 165h1M27 165h1M67 165h2M75 165h2M116 165h1M123 165h1M164 165h1M171 165h1M19 166h2M27 166h2M68 166h1M73 166h1M76 166h1M115 166h2M123 166h2M163 166h2M171 166h2M20 167h1M25 167h1M28 167h1M67 167h2M76 167h1M116 167h1M121 167h1M124 167h1M164 167h1M169 167h1M172 167h1M19 168h2M28 168h1M68 168h1M76 168h1M115 168h2M124 168h1M163 168h2M172 168h1M20 169h1M28 169h1M69 169h1M75 169h1M116 169h1M124 169h1M164 169h1M172 169h1M21 170h1M27 170h1M68 170h1M117 170h1M123 170h1M165 170h1M171 170h1M20 171h1M68 171h1M74 171h1M116 171h1M165 171h1M169 171h1M20 172h1M26 172h1M69 172h1M74 172h1M116 172h1M122 172h1M165 172h1M169 172h2M21 173h1M26 173h1M69 173h1M74 173h1M117 173h2M123 173h1M164 173h1M168 173h1M170 173h2M22 174h1M25 174h1M70 174h1M73 174h1M117 174h4M123 174h1M164 174h1M167 174h5M23 175h2M71 175h2M118 175h2M121 175h2M165 175h2M169 175h2" />
<path stroke="#f3f2c0" d="M19 17h3M26 17h3M66 17h3M75 17h3M115 17h3M122 17h3M163 17h3M170 17h3M21 18h1M26 18h1M68 18h2M74 18h2M117 18h1M122 18h1M165 18h1M170 18h1M21 19h1M26 19h1M68 19h2M74 19h2M117 19h1M122 19h1M165 19h1M170 19h1M19 20h3M26 20h3M67 20h3M74 20h3M115 20h3M122 20h3M163 20h3M170 20h3M19 21h3M26 21h3M67 21h10M115 21h3M122 21h3M163 21h3M170 21h3M19 22h10M67 22h1M69 22h6M76 22h1M115 22h10M163 22h10M19 23h1M21 23h6M28 23h1M67 23h10M115 23h1M117 23h6M124 23h1M163 23h1M165 23h6M172 23h1M19 24h10M69 24h6M115 24h10M163 24h10M21 25h6M117 25h6M165 25h6M72 26h1M20 27h1M24 27h1M27 27h1M69 27h2M73 27h2M116 27h1M120 27h1M168 27h1M171 27h1M20 28h3M25 28h3M69 28h6M116 28h3M121 28h3M164 28h3M169 28h3M21 29h6M69 29h6M117 29h5M123 29h1M164 29h1M166 29h5M19 65h3M26 65h3M66 65h3M75 65h3M115 65h3M122 65h3M163 65h3M170 65h3M19 66h3M26 66h3M66 66h4M74 66h4M115 66h3M122 66h3M163 66h3M170 66h3M19 67h3M26 67h3M66 67h12M115 67h3M122 67h3M163 67h3M170 67h3M19 68h10M67 68h10M115 68h10M163 68h10M19 69h10M67 69h10M115 69h10M163 69h10M19 70h10M67 70h10M115 70h10M163 70h10M19 71h10M67 71h10M115 71h10M163 71h10M19 72h10M67 72h10M115 72h10M163 72h10M19 73h10M115 73h10M163 73h10M20 75h1M27 75h1M69 75h2M73 75h2M123 75h1M164 75h1M20 76h2M23 76h2M26 76h2M69 76h1M71 76h2M74 76h1M116 76h2M119 76h2M122 76h2M164 76h2M167 76h2M170 76h2M21 77h6M69 77h6M116 77h1M118 77h5M165 77h5M171 77h1M23 113h3M72 113h3M119 113h3M167 113h3M23 114h1M26 114h1M69 114h4M75 114h1M119 114h1M122 114h1M167 114h1M170 114h1M21 115h3M26 115h1M69 115h4M75 115h1M117 115h3M122 115h1M165 115h3M170 115h1M21 116h6M69 116h6M117 116h6M165 116h6M21 117h6M69 117h6M117 117h6M165 117h6M21 118h6M68 118h2M71 118h4M117 118h6M165 118h6M20 119h2M23 119h4M68 119h7M116 119h2M119 119h4M164 119h2M167 119h4M20 120h7M68 120h3M73 120h2M116 120h7M164 120h7M20 121h3M25 121h2M116 121h3M121 121h2M164 121h3M169 121h2M73 122h1M25 123h1M70 123h4M121 123h1M168 123h2M22 124h4M70 124h4M118 124h4M168 124h2M22 125h4M70 125h4M117 125h4M166 125h1M168 125h3M22 161h3M69 161h3M118 161h3M166 161h3M21 162h1M24 162h1M68 162h1M71 162h4M117 162h1M120 162h1M165 162h1M168 162h1M21 163h1M24 163h3M68 163h1M71 163h4M117 163h1M120 163h3M165 163h1M168 163h3M21 164h6M69 164h6M117 164h6M165 164h6M21 165h6M69 165h6M117 165h6M165 165h6M21 166h6M69 166h4M74 166h2M117 166h6M165 166h6M21 167h4M26 167h2M69 167h7M117 167h4M122 167h2M165 167h4M170 167h2M21 168h7M69 168h2M73 168h3M117 168h7M165 168h7M21 169h2M25 169h3M117 169h2M121 169h3M165 169h2M169 169h3M70 170h1M22 171h1M70 171h4M118 171h1M166 171h2M22 172h4M70 172h4M118 172h4M166 172h2M22 173h4M70 173h4M119 173h4M165 173h3M169 173h1" />
<path stroke="#e8b5ac" d="M19 18h2M27 18h2M66 18h2M76 18h2M115 18h2M123 18h2M163 18h2M171 18h2M19 19h2M27 19h2M66 19h2M76 19h2M115 19h2M123 19h2M163 19h2M171 19h2M24 114h2M73 114h2M120 114h2M168 114h2M24 115h2M73 115h2M120 115h2M168 115h2M22 162h2M69 162h2M118 162h2M166 162h2M22 163h2M69 163h2M118 163h2M166 163h2" />
<path stroke="#ddd5de" d="M70 18h4M22 19h4M70 19h4M118 19h4M166 19h4M22 20h4M70 20h4M118 20h4M166 20h4M22 21h4M118 21h4M166 21h4M19 27h1M28 27h1M68 27h1M75 27h1M115 27h1M172 27h1M19 28h1M28 28h1M68 28h1M75 28h1M124 28h1M163 28h1M124 29h1M163 29h1M21 30h2M25 30h2M69 30h2M73 30h2M117 30h2M169 30h2M70 66h4M22 67h4M118 67h4M166 67h4M19 75h1M28 75h1M68 75h1M75 75h1M124 75h1M163 75h1M19 76h1M28 76h1M68 76h1M75 76h1M115 76h1M172 76h1M115 77h1M172 77h1M21 78h2M25 78h2M69 78h2M73 78h2M121 78h2M165 78h2M74 122h1M26 123h1M74 123h1M122 123h1M167 123h1M26 124h1M122 124h1M167 124h1M23 126h2M71 126h2M117 126h2M169 126h2M69 170h1M21 171h1M69 171h1M117 171h1M168 171h1M21 172h1M117 172h1M168 172h1M23 174h2M71 174h2M121 174h2M165 174h2" />
<path stroke="#f3d8c5" d="M67 24h2M75 24h2M19 25h2M27 25h2M115 25h2M123 25h2M163 25h2M171 25h2M71 120h2M23 121h2M119 121h2M167 121h2M71 168h2M23 169h2M119 169h2M167 169h2" />
<path stroke="#766daa" d="M69 25h6M21 26h6M69 26h2M73 26h2M117 26h6M165 26h6M21 27h2M25 27h2M117 27h2M121 27h2M165 27h2M169 27h2M69 73h6M21 74h6M69 74h6M117 74h6M165 74h6M21 75h2M25 75h2M117 75h2M121 75h2M165 75h2M169 75h2M69 121h5M21 122h5M69 122h4M117 122h5M165 122h5M21 123h4M117 123h4M165 123h1M70 169h5M22 170h5M71 170h4M118 170h5M166 170h5M23 171h4M119 171h4M170 171h1" />
<path stroke="#eae178" d="M71 26h1M23 27h1M71 27h2M119 27h1M167 27h1M23 28h2M119 28h2M167 28h2M68 122h1M20 123h1M68 123h1M116 123h1M164 123h1M20 124h1M116 124h1M164 124h1M75 170h1M27 171h1M75 171h1M123 171h1M171 171h1M27 172h1M123 172h1M171 172h1" />
</svg>