<?xml version="1.0" standalone="no"?>
<!DOCTYPE svg PUBLIC "-//W3C//DTD SVG 20010904//EN"
 "http://www.w3.org/TR/2001/REC-SVG-20010904/DTD/svg10.dtd">
<svg version="1.0" xmlns="http://www.w3.org/2000/svg"
 width="32.000000pt" height="32.000000pt" viewBox="0 0 32.000000 32.000000"
 preserveAspectRatio="xMidYMid meet">

<g transform="translate(0.000000,32.000000) scale(0.100000,-0.100000)"
fill="#000000" stroke="none">
<path d="M105 228 c-10 -30 -13 -78 -5 -83 5 -3 7 -12 4 -19 -7 -18 23 -41 57
-42 30 -2 65 28 55 45 -4 5 -2 12 3 15 11 7 3 77 -10 91 -6 6 -17 5 -30 -4
-15 -9 -24 -10 -32 -2 -15 15 -37 14 -42 -1z m35 -8 c0 -5 9 -10 20 -10 11 0
20 5 20 10 0 6 7 10 15 10 11 0 15 -12 15 -45 l0 -45 -50 0 -50 0 0 45 c0 33
4 45 15 45 8 0 15 -4 15 -10z m70 -98 c0 -12 -29 -28 -50 -28 -21 0 -50 16
-50 28 0 2 23 4 50 4 28 0 50 -2 50 -4z"/>
</g>
</svg>
