<svg xmlns="http://www.w3.org/2000/svg" viewBox="0 -0.5 24 24" shape-rendering="crispEdges" width="24" height="24">
<metadata>Made with Pixels to Svg https://codepen.io/shshaw/pen/XbxvNj</metadata>
<path stroke="#ffd800" d="M1 0h22M0 1h24M0 2h2M22 2h2M0 3h2M22 3h2M0 4h2M22 4h2M0 5h2M22 5h2M0 6h2M22 6h2M0 7h2M22 7h2M0 8h2M22 8h2M0 9h2M22 9h2M0 10h2M22 10h2M0 11h2M22 11h2M0 12h2M22 12h2M0 13h2M22 13h2M0 14h2M22 14h2M0 15h2M22 15h2M0 16h2M22 16h2M0 17h2M22 17h2M0 18h2M22 18h2M0 19h2M22 19h2M0 20h2M22 20h2M0 21h2M22 21h2M0 22h24M1 23h22" />
<path stroke="rgba(255,206,123,0.43137254901960786)" d="M2 2h20M2 3h20M2 4h20M2 5h20M2 6h20M2 7h20M2 8h20M2 9h20M2 10h20M2 11h20M2 12h20M2 13h20M2 14h20M2 15h20M2 16h20M2 17h20M2 18h20M2 19h20M2 20h20M2 21h20" />
</svg>