<svg xmlns="http://www.w3.org/2000/svg" viewBox="0 -0.5 24 24" shape-rendering="crispEdges" width="24" height="24">
<metadata>Made with Pixels to Svg https://codepen.io/shshaw/pen/XbxvNj</metadata>
<path stroke="#cea663" d="M1 0h22M0 1h1M23 1h1M0 2h1M23 2h1M0 3h1M23 3h1M0 4h1M23 4h1M0 5h1M23 5h1M0 6h1M23 6h1M0 7h1M23 7h1M0 8h1M23 8h1M0 9h1M23 9h1M0 10h1M23 10h1M0 11h1M23 11h1M0 12h1M23 12h1M0 13h1M23 13h1M0 14h1M23 14h1M0 15h1M23 15h1M0 16h1M23 16h1M0 17h1M23 17h1M0 18h1M23 18h1M0 19h1M23 19h1M0 20h1M23 20h1M0 21h1M23 21h1M0 22h1M23 22h1M1 23h22" />
<path stroke="rgba(255,206,123,0.43137254901960786)" d="M1 1h22M1 2h22M1 3h22M1 4h22M1 5h22M1 6h22M1 7h22M1 8h22M1 9h22M1 10h22M1 11h22M1 12h22M1 13h22M1 14h22M1 15h22M1 16h22M1 17h22M1 18h22M1 19h22M1 20h22M1 21h22M1 22h22" />
</svg>