<svg xmlns="http://www.w3.org/2000/svg" viewBox="0 -0.5 48 32" shape-rendering="crispEdges" width="48" height="32">
<metadata>Made with Pixels to Svg https://codepen.io/shshaw/pen/XbxvNj</metadata>
<path stroke="#f3f4e7" d="M26 0h3M39 0h3M24 1h2M28 1h1M38 1h1M42 1h1M23 2h1M28 2h1M37 2h1M43 2h4M22 3h1M28 3h3M38 3h1M46 3h1M1 4h2M5 4h5M22 4h1M30 4h1M39 4h2M46 4h1M0 5h1M3 5h2M10 5h3M21 5h1M30 5h1M41 5h1M46 5h1M0 6h1M13 6h1M21 6h1M30 6h1M40 6h1M45 6h1M0 7h1M14 7h1M21 7h4M29 7h1M39 7h1M43 7h2M1 8h1M15 8h1M23 8h1M28 8h1M38 8h1M42 8h1M2 9h1M11 9h1M15 9h1M22 9h1M26 9h2M37 9h1M41 9h1M3 10h1M15 10h1M21 10h1M25 10h1M36 10h1M40 10h1M3 11h1M14 11h1M20 11h1M24 11h1M35 11h1M39 11h1M4 12h1M10 12h1M13 12h1M19 12h1M23 12h1M34 12h1M38 12h1M5 13h5M11 13h2M18 13h1M22 13h1M34 13h1M37 13h1M18 14h1M21 14h1M34 14h3M18 15h3M26 17h4M37 17h3M6 18h3M25 18h1M29 18h1M36 18h1M40 18h1M5 19h1M9 19h1M19 19h3M24 19h1M29 19h1M35 19h1M41 19h1M4 20h1M10 20h2M18 20h1M22 20h1M24 20h1M29 20h1M34 20h1M42 20h1M3 21h1M12 21h1M17 21h1M23 21h1M28 21h1M33 21h1M43 21h1M3 22h1M13 22h1M17 22h1M27 22h1M33 22h1M44 22h1M2 23h1M14 23h1M17 23h1M26 23h1M33 23h1M45 23h1M1 24h1M14 24h1M18 24h1M26 24h1M34 24h1M46 24h1M1 25h1M14 25h1M19 25h1M27 25h1M35 25h1M46 25h1M1 26h1M14 26h1M20 26h1M28 26h1M36 26h1M46 26h1M2 27h1M14 27h1M21 27h1M28 27h1M37 27h1M45 27h1M3 28h1M13 28h1M22 28h1M28 28h1M38 28h1M44 28h1M4 29h1M11 29h2M23 29h1M27 29h1M39 29h1M43 29h1M5 30h6M24 30h3M40 30h3" />
<path stroke="#818b83" d="M26 1h2M39 1h3M24 2h2M38 2h1M42 2h1M23 3h1M43 3h1M23 4h1M22 5h1M22 6h1M2 7h1M9 7h1M3 8h1M9 8h1M13 8h1M9 9h1M13 9h1M5 10h1M9 10h1M13 10h1M5 11h5M11 11h2M5 22h1M5 23h2M6 24h1M3 26h1M12 26h1M4 27h2M10 27h3M5 28h6" />
<path stroke="#c1c8b9" d="M26 2h1M39 2h3M24 3h2M42 3h1M24 4h1M23 5h1M5 6h1M9 6h1M6 7h3M6 20h3M5 21h5M6 22h3M11 22h1M10 23h3M9 24h4M7 25h6M6 26h6M6 27h4" />
<path stroke="#6b7470" d="M27 2h1M27 3h1M39 3h2M27 4h1M41 4h1M1 5h2M5 5h5M45 5h1M1 6h1M3 6h2M10 6h3M23 6h3M29 6h1M44 6h1M1 7h1M4 7h1M10 7h1M13 7h1M28 7h1M27 8h1M6 19h3M5 20h1M9 20h1M4 21h1M10 21h2M4 22h1M12 22h1M3 23h1M13 23h1M13 24h1" />
<path stroke="#9da89a" d="M26 3h1M41 3h1M25 4h2M42 4h2M24 5h4M43 5h2M2 6h1M26 6h3M3 7h1M5 7h1M11 7h2M27 7h1M5 8h4M5 9h4M6 10h3M9 22h2M4 23h1M7 23h3M3 24h3M7 24h2M3 25h4M4 26h2" />
<path stroke="#90625d" d="M44 3h2M28 4h2M42 5h1M41 6h1M25 7h1M40 7h1M24 8h1M39 8h1M23 9h1M38 9h1M22 10h1M37 10h1M21 11h1M36 11h1M20 12h1M35 12h1M19 13h1M37 18h3M36 19h1M40 19h1M19 20h3M35 20h1M40 20h2M18 21h1M22 21h1M24 21h1M34 21h1M40 21h1M42 21h1M18 22h1M22 22h2M34 22h1M39 22h1M43 22h1M22 23h1M38 23h1M44 23h1M20 24h2M36 24h2M26 25h1M27 26h1" />
<path stroke="#b68962" d="M44 4h1M28 5h1M42 6h1M41 7h1M25 8h1M40 8h1M24 9h1M39 9h1M23 10h1M38 10h1M22 11h1M37 11h1M21 12h1M36 12h1M20 13h1M41 21h1M25 22h1M40 22h1M24 23h1M39 23h2M22 24h1M38 24h4M21 25h3M37 25h2M41 25h2M22 26h3M38 26h2M42 26h3M23 27h3M39 27h2M42 27h2M24 28h3M40 28h3" />
<path stroke="#754c60" d="M45 4h1M29 5h1M43 6h1M42 7h1M26 8h1M41 8h1M25 9h1M40 9h1M24 10h1M39 10h1M23 11h1M38 11h1M22 12h1M37 12h1M21 13h1M35 13h2M19 14h2M18 23h1M34 23h1M19 24h1M35 24h1M45 24h1M20 25h1M36 25h1M45 25h1M21 26h1M37 26h1M45 26h1M22 27h1M38 27h1M44 27h1M23 28h1M27 28h1M39 28h1M43 28h1M24 29h3M40 29h3" />
<path stroke="#545959" d="M6 6h3M2 8h1M4 8h1M10 8h3M14 8h1M3 9h2M10 9h1M12 9h1M14 9h1M4 10h1M10 10h3M14 10h1M4 11h1M10 11h1M13 11h1M5 12h5M11 12h2M2 24h1M2 25h1M13 25h1M2 26h1M13 26h1M3 27h1M13 27h1M4 28h1M11 28h2M5 29h6" />
<path stroke="#aa7959" d="M26 7h1" />
<path stroke="#5f7a79" d="M26 18h3M25 19h1M28 19h1M25 20h1M28 20h1M25 21h3" />
<path stroke="#97bb8e" d="M26 19h2M27 20h1" />
<path stroke="#dcb98a" d="M37 19h3M36 20h1M39 20h1M19 21h3M35 21h1M37 21h1M39 21h1M19 22h1M21 22h1M35 22h1M38 22h1M19 23h3M35 23h3" />
<path stroke="#aed499" d="M26 20h1" />
<path stroke="#d1ab7d" d="M37 20h2M36 21h1M38 21h1M20 22h1M36 22h2" />
<path stroke="#c49a6c" d="M24 22h1M41 22h2M23 23h1M41 23h3M23 24h2M42 24h3M24 25h2M39 25h2M43 25h2M25 26h2M40 26h2M26 27h1M41 27h1" />
<path stroke="#7f575d" d="M26 22h1M25 23h1M25 24h1M27 27h1" />
</svg>