<svg xmlns="http://www.w3.org/2000/svg" viewBox="0 -0.5 64 16" shape-rendering="crispEdges" width="64" height="16">
<metadata>Made with Pixels to Svg https://codepen.io/shshaw/pen/XbxvNj</metadata>
<path stroke="#9bd4c3" d="M0 0h13M17 0h13M33 0h13M48 0h13M0 1h64M0 2h7M10 2h13M26 2h14M43 2h13M59 2h5M0 3h64M0 4h64M3 5h12M20 5h12M36 5h12M51 5h12M0 6h64M0 7h64M0 8h9M13 8h13M30 8h12M46 8h11M61 8h3M0 9h64M0 10h4M6 10h14M22 10h15M39 10h14M55 10h9M0 11h64M0 12h13M16 12h13M33 12h13M49 12h13M0 13h7M10 13h14M27 13h13M43 13h12M58 13h6M0 14h64M0 15h64" />
<path stroke="#b1e0be" d="M13 0h4M30 0h3M46 0h2M61 0h3M7 2h3M23 2h3M40 2h3M56 2h3M0 5h3M15 5h5M32 5h4M48 5h3M63 5h1M9 8h4M26 8h4M42 8h4M57 8h4M4 10h2M20 10h2M37 10h2M53 10h2M13 12h3M29 12h4M46 12h3M62 12h2M7 13h3M24 13h3M40 13h3M55 13h3" />
</svg>