<svg xmlns="http://www.w3.org/2000/svg" viewBox="0 -0.5 32 32" shape-rendering="crispEdges">
<metadata>Made with Pixels to Svg https://codepen.io/shshaw/pen/XbxvNj</metadata>
<path stroke="#5c4e92" d="M11 8h3M18 8h3M10 9h1M14 9h1M17 9h1M21 9h1M10 10h1M14 10h4M21 10h1M10 11h1M21 11h1M10 12h1M21 12h1M10 13h1M21 13h1M9 14h2M21 14h2M10 15h1M12 15h1M19 15h1M21 15h1M9 16h2M21 16h2M10 17h1M21 17h1M11 18h2M19 18h2M10 19h1M21 19h1M10 20h1M21 20h1M11 21h2M19 21h2M12 22h1M15 22h2M19 22h1M13 23h2M17 23h2" />
<path stroke="#f3f2c0" d="M11 9h3M18 9h3M13 10h1M18 10h1M13 11h1M18 11h1M11 12h3M18 12h3M11 13h3M18 13h3M11 14h10M11 15h1M13 15h6M20 15h1M11 16h10M13 17h6M12 19h1M16 19h1M19 19h1M12 20h3M17 20h3M13 21h6" />
<path stroke="#e8b5ac" d="M11 10h2M19 10h2M11 11h2M19 11h2" />
<path stroke="#ddd5de" d="M14 11h4M14 12h4M14 13h4M11 19h1M20 19h1M11 20h1M20 20h1M13 22h2M17 22h2" />
<path stroke="#f3d8c5" d="M11 17h2M19 17h2" />
<path stroke="#766daa" d="M13 18h6M13 19h2M17 19h2" />
<path stroke="#eae178" d="M15 19h1M15 20h2" />
</svg>